<?xml version="1.0" encoding="UTF-8" standalone="no"?>
<!-- Created with sK1/UniConvertor (http://sk1project.org/) -->
<svg xmlns:inkscape="http://www.inkscape.org/namespaces/inkscape" xmlns:rdf="http://www.w3.org/1999/02/22-rdf-syntax-ns#" xmlns="http://www.w3.org/2000/svg" xmlns:cc="http://creativecommons.org/ns#" xmlns:dc="http://purl.org/dc/elements/1.1/" xmlns:sodipodi="http://sodipodi.sourceforge.net/DTD/sodipodi-0.dtd" xmlns:svg="http://www.w3.org/2000/svg" xmlns:ns1="http://sozi.baierouge.fr" xmlns:xlink="http://www.w3.org/1999/xlink" id="svg2985" style="fill-rule:evenodd" sodipodi:docname="Cabin_whole_b.cdr" version="1.1" inkscape:version="0.48.0 r9654" viewBox="0 0 1221.4604 855.4734">
  <sodipodi:namedview id="namedview3149" fit-margin-left="0.1" inkscape:zoom="0.19116214" borderopacity="1" inkscape:current-layer="svg2985" inkscape:cx="771.30974" inkscape:cy="783.1351" showgrid="false" fit-margin-right="0.1" units="in" inkscape:document-units="in" bordercolor="#666666" guidetolerance="10" objecttolerance="10" fit-margin-bottom="0" inkscape:window-width="640" inkscape:pageopacity="0" inkscape:pageshadow="2" pagecolor="#ffffff" gridtolerance="10" inkscape:window-height="480" fit-margin-top="0.1"/>
  <path id="path2991" style="fill:#217867" inkscape:connector-curvature="0" d="m542.54 799.56-4.1437-1.208c-5.3516-1.691-7.2172-5.495-9.0945-7.936-1.8773-2.346-12.094-6.463-23.735-9.092-28.261-6.196-46.479-12.708-52.952-14.552-4.7825-1.299-8.0744-2.911-14.553-3.944-6.5714-1.126-28.072-7.041-47.694-13.332-19.717-6.196-43.564-13.143-53.046-15.49-9.4828-2.348-23.927-4.11-31.906-6.364-11.898-2.159-28.866-6.877-35.623-7.74-4.5586 4.902-17.708 4.355-20.929-6.027-18.601-2.753-14.073-20.082-7.3151-21.36l6.2269-2.283c-0.77268-2.064-0.41961-4.493 0.57149-6.357-17.549-5.145-15.724-22.624-1.9705-26.569-0.43449-1.546 0.23799-5.268 1.2753-6.327-18.912-3.807-11.952-22.791-2.282-24.321-0.70145-2.832-0.27479-5.907 2.6257-7.516-15.465-3.218-17.289-17.853-3.9151-23.06-1.4256-2.025-0.76485-6.82 0.76329-7.919-11.276-1.622-14.692-17.572-1.3348-21.119-0.21607-1.451-0.2372-3.779 1.0537-5.451-12.199-1.562-11.19-20.705-1.359-22.039-0.4525-1.424 0.45719-2.614 0.0415-4.435-14.102-6.007-7.0747-20.98 1.4452-22.972 1.3731-0.176 3.9284 0.07 5.6468-0.233-1.9282 1.715-3.591 2.713-4.6267 5.875-1.8781 4.721 0.80479 7.88 3.461 10.408 3.2074 2.626 8.2232 2.844 11.978 0.778 4.8647-3.177 6.5572-11.167 1.9572-15.767 14.634 0.85 9.7326-0.369 24.87-0.185-8.7759 1.951-12.718 6.354-14.722 10.631l-5.7838 7.369 29.953-1.258c15.96 0.376 34.098-0.221 39.169-0.408 57.458-2.254 66.798-0.312 74.185-0.766 0.26226-5.638 0.24425-11.904 0.24425-16.222 3.0226-0.509 5.1137-0.542 7.4842-0.455-0.46032 13.076 0.37812 36.258 0.30923 48.829 5.0949 1.392 65.789 2.73 79.898 1.544l-0.83844-50.155c3.8486-0.08 2.9498-0.119 8.1034-0.06-0.0861 3.217 0.35307 9.898 0.78443 12.925 6.479 0 21.852-0.49 24.875-0.642-2.9357-3.669-5.7728-7.821-5.4276-12.003 1.9712-0.178 4.1139-0.15 6.623-0.184-0.10725 3.429 3.9417 11.798 15.007 12.258 3.717 0.155 13.025-1.277 14.724-12.387 10.725 0.26 11.727-0.233 14.35 0.208-1.7771 2.344-3.3037 5.32-4.478 9.749 9.8406 0.169 14.835 0 21.231 0.212 1.1586-3.801 2.8731-6.891 5.2139-9.86 4.8538-2.734 12.119-2.705 18.178 0.09 8.588 5.766 8.4079 21.859-4.4858 25.623 0.40709 1.995 0.008 4.833 0.20354 6.825-3.9848 0.01-8.7994-0.362-12.667 0.197-1.37-1.196-2.4269-2.196-3.5151-3.214-7.1867-3.581-15.321-4.404-23.736-6.219-3.7499-0.809-8.6898-1.622-13.724-1.609-3.8282 0.01-7.8153 0.01-13.902 0.298-6.1846 0.288-10.439 4.413-12.13 9.553l-2.4324 0.26c0.009-0.02-4.1272 0.129-4.8952 0.02-8.6976 0-14.425 0.729-17.912 0.212 0.38047 2.83 0.51904 15.685 0.48459 19.625h0.39535l-2.7455 2.288-8.0048 1.027 0.17301 5.697 9.994-1.773-1.071-2.538 5.3642-4.672c7.4521 0.05 12.792-0.01 21.235-0.81-3.9895-1.664-5.6977-4.167-6.1674-6.78-0.81104-2.222-0.6623-5.228 0.8956-7.068 1.2588-1.317 2.7768-2.115 4.2948-2.654-0.86663 4.225-0.1644 7.848 2.603 11.543 5.5388 7.577 14.568 7.411 20.109 1.308 4.3214-6.102 5.5035-16.368-2.1137-21.258 1.464 0.06 2.9357 0.115 4.3997 0.173 3.1471 1.846 5.3 3.545 6.9988 6.845 4.3136-1.348 21.936-1.542 29.866-2.123 1.6049 0.854 2.4347 1.104 3.3506 2.218-2.8105 0.491-6.2003 1.231-9.4648 2.21-2.7635 4.835-7.2493 9.094-15.54 12.086-7.0223 4.488-5.754 6.215 3.7969 5.179 6.3334 0.345 12.667 0.691 18.992 1.036-1.4561-9.699 2.4973-13.669 6.7248-16.738 4.0239-2.117 9.1517-1.747 12.056-0.992 3.3037 0.862 11.234 3.515 11.383 13.314 1.1821 13.121-7.4215 15.853-12.401 16.913-0.95509 0.214-1.2996 0.644-1.2056 1.25l0.62629 6.711-20.699-1.33-10.396-4.397c-4.0944-3.877-8.7759-6.532-19.055-7.408-6.2316-0.531-12.873-0.383-19.85 0.579-4.3504 0.6-8.3187 3.813-10.038 8.097-47.378-1.265-96.894-1.033-145.21-5.532-13.63-0.03-41.573-0.759-62.619-1.48-29.532-1.269-43.152-2.95-48.313-2.538-1.1813 4.433-3.3373 10.388-7.1358 13.853 30.818 2.586 79.648 6.778 110.8 7.532 47.737 2.506 94.715 7.875 143.33 10.524 4.038 0.188 9.9134 0.896 9.9134-0.418-3.0892-3.079-3.663-4.166-4.6995-7.973-1.1532-2.634-1.031-4.196-0.0658-6.957 0.69283-1.507 1.9736-2.697 3.4822-3.693-0.2513 3.251-0.20667 5.941 2.6555 9.671 5.9075 7.699 17.461 7.776 22.299 3.286 3.8047-2.613 7.1632-10.225 2.1842-16.891-1.0177-1.407-4.9086-4.385-6.7796-5.715h4.3371c5.8871 4.13 7.1945 7.361 7.946 9.386 2.6696-0.238 9.5744-1.016 15.422-1.915l6.1924 1.99c-4.251 2.202-11.9 10.978-19.572 13.594 6.7013 0.718 18.875 1.479 26.547 1.722 1.5344-6.388 5.1278-7.118 10.083-10.274 4.8538-1.471 7.813-0.871 12.494 0.42 4.5719 1.431 8.9325 6.673 8.7289 10.293 1.2604 9.084-0.61846 14.286-12.119 17.777-0.7907 0.209 0.22703 2.732 0.14091 3.224-6.3177-0.603-20.284-1.812-24.684-0.318-2.0668-1.608-4.5171-3.721-4.4545-3.729-3.6325-6.216-7.6094-8.26-14.076-9.75-7.5625-0.914-18.296 0.803-26.668 0.898-4.0928 0.797-7.1123 3.626-8.8127 5.811-0.47598 0.992-0.92613 2.047-1.2925 3.143l-1.244-0.05c0.006 0 0.0125-0.01 0.0196-0.02-0.3468 0-0.74919-0.02-1.2017-0.03l-0.83453-0.03c0.00078 0 0.002 0 0.002 0.01-6.082-0.15-18.881-0.574-28.688-1.592-16.338-1.69-37.556-3.662-47.038-4.319-57.286-3.98-120.84-6.602-177.95-12.208 1.4741 6.9-3.1909 13.954-9.8828 15.918 11.265 0.877 21.425 2.107 38.651 3.989 32.421 1.801 64.195 5.944 96.831 7.72 44.896 4.477 87.05 9.066 131.53 11.932-1.77-1.328-4.6909-6.983-4.8976-8.953 0.17145-4.1-0.34994-6.075 1.3426-8.494 0.49947-0.837 1.9493-1.501 3.0532-1.733-0.74842 2.532-0.79931 2.495 0.51434 7.954 0.66856 0.929 1.269 1.341 1.9564 2.438 9.0131 9.013 19.105 7.786 26.049 1.496 4.1648-6.451 3.0297-15.082-1.8554-17.054 1.3074 1.148-3.0532-3.308 1.3152-1.502 2.5365-0.188 5.9811 5.3 7.0223 9.797 5.3-0.346 10.725-1.145 14.945-2.026 1.4248 0.02 2.1685 1.078 3.2489 1.617-4.0552 2.828-6.349 8.403-12.04 11.494-10.428 2.991-5.9654 5.469-0.7124 5.563 3.4759 0.09 16.745 1.576 22.617 1.146-0.10178-3.444-0.93944-7.866 4.8929-12.721 9.3317-7.774 25.31-5.888 25.999 6.858 2.2155 11.535-7.8364 19.546-13.23 20.721 0.14091 2.558-0.41492 6.568-0.26618 8.722-2.2468-0.114-12.62-1.385-20.488-2.508-8.9873 7.488-14.968 9.271-22.75 17.933 5.4174 0.441 24.277 3.398 24.746 2.178 0.90812-5.575 6.0124-11.175 10.725-13.592 5.7306-1.382 20.574 1.662 20.574 11.173 1.3857 11.787-9.089 16.198-13.066 19.074 0.1644 3.913 0.25051 6.291-0.0313 8.491-6.5134 0.501-14.577-1.84-20.73 0.544-5.8323 5.483-13.88 9.511-18.249 10.773-4.525 3.948-0.59498 5.865 5.2608 6.509 5.7932 0.637 11.532 1.86 15.814 1.79 0.64194-5.76 5.3391-13.477 11.821-16.274 8.6115-1.414 21.161 5.08 19.846 14.666-5.5348 1.886-16.949 3.231-32.653 6.959-10.428 2.475-16.941 3.786-22.93 5.321 0.0313 2.466 0.79852 11.522 1.2134 13.664 13.755 2.235 29.937 5.146 43.77 6.988 0.0939 13.163 0.72023 28.751 1.0177 37.643-4.7911-0.752-30.359-0.551-36.27 1.515-12.581 4.505-24.167 5.541-38.139 2.18zm-308.51-214.12c-2.5318 0.844-3.7515 2.761-2.7032 5.853-10.7 0.577-3.7953 6.035-2.8167 21.5-4.5069-8.544-10.422-6.103-10.422 4.318 0 5.071-0.65682 9.295-1.4076 9.295-0.8447 0-4.413-3.285-7.8858-7.323-3.5683-4.037-6.479-5.821-6.479-3.944-0.18711 4.977-4.788 3.944-11.359-2.721-3.2864-3.287-8.3563-5.915-11.267-5.915-4.413 0-5.4456-2.066-6.1024-12.582-0.84549-13.426-4.1312-16.524-6.854-6.665-1.5963 5.539-1.972 5.633-4.5069 1.314-3.7546-6.478-1.972-16.524 2.9107-16.524 2.1599 0 4.319-2.816 4.7888-6.29 0.75077-5.164 2.0644-3.849 7.6047 7.98l6.7592 14.177 3.0046-8.356c4.413-12.487 6.1032-12.768 7.8858-1.596 0.84549 5.539 3.4743 12.487 5.8214 15.303 3.8501 4.882 4.0372 4.131 2.5349-11.266-1.6894-17.932 0-21.312 4.3183-8.637 1.597 4.413 4.038 7.98 5.4464 7.98 1.5962 0 1.8773-1.972 0.65682-4.695-1.0318-2.534-2.347-8.731-2.9107-13.895-0.8447-7.887-0.56209-8.449 1.597-3.285 1.5023 3.285 3.8486 5.914 5.3509 5.914 3.5675 0 3.4743-0.188-1.2205-11.454-5.9145-14.083-4.6001-17.932 1.8773-5.727 3.0054 5.821 7.0418 11.829 8.9199 13.237 1.7834 1.503 3.7554 4.507 4.2243 6.854-2.4746 2.123-6.5604 8.963 2.2343 17.15zm-5.538 50.81c-3.4892 1.464-1.1093 4.802-1.1093 13.44 0 9.014-0.65682 9.764-7.604 9.952-5.2577 0.09-9.201-2.065-12.956-7.136-2.9099-3.942-6.9479-6.572-8.9199-5.82-2.2531 0.938-3.7546-0.47-3.8486-3.474-0.18789-2.722-1.4084-1.032-2.7228 3.661-1.7841 6.01-4.1312 8.638-7.7926 8.638-2.816 0-5.1638 1.22-5.1638 2.629 0 1.502-1.5955 2.629-3.5675 2.629s-4.8819 3.004-6.5721 6.666c-4.038 8.92-7.9813 8.356-12.205-1.69-2.5357-6.103-4.038-7.323-5.7282-4.601-2.6281 4.226-5.7259-4.694-6.1024-17.932-0.46893-14.927-13.426-13.426-32.954 3.756-8.1676 7.135-10.89 8.261-13.99 5.727-3.0038-2.536-4.788-2.348-8.5434 1.127-5.7266 5.163-12.768 5.632-14.365 1.032-0.84471-2.535-2.2523-2.348-6.0085 0.657-4.5069 3.756-4.6948 3.474-2.8167-3.943 1.0326-4.413 5.9145-13.426 10.796-20.186 10.328-14.458 9.1078-21.03-2.9099-14.928-4.2251 2.16-9.201 3.38-11.078 2.629-1.8781-0.657-5.1638 0.282-7.3229 2.066-2.9115 2.441-4.6948 2.441-7.5116 0.187-2.9107-2.441-5.4448-1.595-11.924 3.85-1.143 1.502-3.5988 0.923-4.1382 3.176-0.45719 1.908-2.6014 2.929-4.1233 3.86-2.574-1.243 0-4.44 0-6.66 0-6.385-0.37499-6.572-9.2949-3.849-12.487 3.849-14.27 1.031-4.788-7.887 4.3183-4.038 8.9192-9.108 10.327-11.361 2.441-3.942 31.171-29.104 37.555-32.766 6.3835-3.756 3.191 1.408-9.0139 14.365-14.74 15.772-11.642 17.18 5.9153 2.628 7.0411-5.82 13.238-10.046 13.895-9.389 0.56366 0.564-1.5955 5.446-4.9751 10.797-6.479 10.516-5.1645 10.423 10.233-0.562 6.0085-4.413 6.1032-4.32 4.2243 2.91l-1.7826 7.323 6.8532-4.507c3.7554-2.441 7.9805-3.756 9.3881-2.91 3.0994 1.877 10.985-0.846 10.985-3.756 0-1.126-3.8493-1.877-8.6373-1.69-9.107 0.376-9.107 0.376-6.5714-17.65 0.74998-6.009 24.034-27.04 25.349-22.909 0.56209 1.597-0.28183 4.319-1.8789 5.915-1.6894 1.597-3.0031 4.131-3.0031 5.633 0 1.503 5.9137-3.192 13.237-10.328 7.2305-7.134 13.897-12.205 14.835-11.265 0.93866 0.939-2.7228 7.698-8.0744 15.116-12.018 16.336-9.5768 17.18 6.1024 2.065 11.547-11.078 12.768-10.327 6.854 4.694-1.972 5.164-1.972 5.164 3.7546 0.188 3.0994-2.723 5.7274-4.131 5.7274-3.004 0 1.221 1.7849 0.657 3.9441-1.127 2.816-2.347 3.1917-4.601 1.3136-8.075-3.3796-6.29-3.3796-17.744 0-19.81 0.79774-0.469 1.1641 0.339 1.6456 1.594 0.48068 1.256 0.76251 3.275 0.76251 5.856 0.0947 2.438 3.0203 4.642 4.9203 2.442 3.3796-6.103 2.7173-6.511 5.5348-1.723 3.2849 5.726 2.3329-12.495 3.4532-20.272 3.0626 0.813 5.7908 0.224 7.3902-0.344 0 2.817-0.0235 6.709 1.7411 9.425 3.2716 0.948 4.8678-6.189 4.9391-9.172 2.4887 0.143 3.757 0.36 5.8926 0.04-0.60124 4.372 2.9154 4.493 5.2107 1.395 2.203-1.652 5.8316-2.243 17.474-2.806 4.741-1.148 7.2125 0.711 12.707 1.523-0.89403 5.179 1.2886 8.491-2.0339 15.044l1.9078 26.363-7.7832-25.767-3.7264 6.392c-3.5276-3.386-2.0206-12.751-5.8629-13.935-3.7069 3.03-2.3783 7.949-3.5675 11.923-1.8773 6.572-4.9766 11.924-6.854 11.924-4.0364 0-6.6661 5.82-6.6661 14.739 0 7.605-0.75155 7.794-9.2949 2.161-3.6614-2.348-6.5721-3.569-6.5721-2.63 0 0.94-2.816-0.188-6.3835-2.441-6.1024-4.037-6.4782-3.849-9.6707 3.474-2.1591 4.789-7.9797 9.858-15.585 13.613-6.6661 3.287-15.584 7.699-19.997 9.859-5.2585 2.723-8.1684 3.098-8.826 1.126-1.4076-4.224-5.8206-3.473-5.8206 1.033 0 2.066-4.788 7.699-10.703 12.393-9.2949 7.511-23.097 30.325-20.092 33.33 0.65682 0.564 5.7274-4.695 11.361-11.642 21.406-26.57 25.16-28.73 11.547-6.573-4.413 7.136-7.9805 14.459-7.9805 16.431 0 7.041 13.614-9.483 22.627-27.509 5.069-10.14 9.107-16.148 9.107-13.332-0.0947 2.723-1.7842 7.887-3.9433 11.548-6.1032 10.797-4.5062 12.205 4.3183 3.849l8.2631-7.792-1.7841 6.666c-1.6902 6.29-1.597 6.385 2.3462 1.408 2.2539-2.816 4.1312-7.229 4.1312-9.764 0-2.534 1.4092-5.445 3.0994-6.478 2.1591-1.408 2.5341 1.408 1.3136 10.421-1.8773 14.177-0.93865 15.304 4.694 5.07 3.8493-7.135 3.9441-6.76 4.2259 11.267 0.37499 16.712 0.65682 17.651 2.9099 9.2 4.6948-17.087 6.0085-17.275 7.6987-1.314 1.4076 14.74 1.6894 15.304 3.7554 7.324 2.441-10.141 5.3516-10.985 8.1676-2.629 1.8789 5.351 2.1607 5.163 3.0994-2.723 1.3136-10.328 4.788-10.891 11.829-1.972 6.479 8.262 10.046 8.45 10.422 0.657 0.1871-5.539 0.37499-5.539 1.9705-0.657 0.93943 2.911 3.0986 7.605 4.7888 10.516 2.6288 4.413 3.6614 4.6 7.229 1.595 2.3478-1.877 4.3198-6.29 4.3198-9.764s1.1258-6.29 2.6281-6.29c1.4084 0 2.6289 2.535 2.6289 5.539-0.60437 1.443-1.1109 3.434 0.5981 3.346 3.9754-0.386 0.0814 9.718-0.804 8.939zm304.28 74.781c-0.63882-3.114-0.47833-6.478-0.011-9.135l-3.2645 2.393c-1.8264 2.976-1.9063 6.413-1.709 8.869-0.24816 4.667 1.8358 10.16 2.1873 10.875-12.731-1.008-28.887-5.35-42.04-7.217-15.116-2.159-38.508-5.817-52.028-9.48-13.613-3.661-59.329-12.593-79.923-17.075-23.619-5.62-63.28-11.165-85.22-16.653l5.1614-7.487c3.8493-3.287 8.6365-4.695 13.237-3.944 9.482 1.596 54.923 8.262 81.306 11.83 11.641 1.689 39.714 6.384 62.247 10.609 48.164 8.825 61.535 11.263 83.879 13.61 2.7471 0.298 5.062 0.519 7.0238 0.65 3.9895-0.06 7.8051 0.144 10.931-1.73 1.8342-4.955 6.6606-8.817 12.145-8.817l15.357-2.401c5.6366-0.346 13.622-3.395 18.992 2.071 4.2744 4.352 8.7133 9.41 15.015 13.295l-22.265 2.935c-1.5031-1.324-2.4817-3.684-2.419-6.043-0.46189-4.431-5.0651-6.791-8.635-8.978l-3.7969-0.691-1.8397 0.562c12.925 6.065 14.303 23.406-0.61847 31.32-7.362 3.956-22.174-1.866-23.712-9.368zm0.72258-45.986c0.00078 0 1.2111 3.972 4.2337 7.774 2.8911 5.238 18.654 8.984 24.706-0.7 5.1669-7.418 3.1001-11.401-2.0668-16.566-1.9337-1.244-3.3193-3.533-2.2625-4.569 8.1966 2.072 7.5468 11.386 12.768 13.716 5.9811-1.035 16.573-2.398 16.573-3.525-9.9345-3.405-11.328-13.057-18.139-15.459-4.0865-1.441-10.553 0.692-15.344 1.171-8.6984 0.87-20.49 1.742-20.907 13.316-7.2955 0-22.545-2.105-30.458-3.095-24.786-2.161-83.403-9.071-117.58-14.329-13.802-2.065-41.595-5.321-60.372-6.823-18.174-1.751-39.415-1.736-47.768-2.818-0.88934 4.193-6.6379 8.593-14.972 11.764 2.1591 1.409 7.4435 2.629 13.358 2.629 9.4828 0 56.614 5.916 75.298 9.388 24.579 4.417 48.527 6.707 74.17 9.798 10.173 1.687 27.07 5.727 39.463 6.76 24.811 2.978 46.641 7.406 73.292 9.916-1.9008-1.94-3.4845-6.039-4.9234-9.367-0.74293-1.972-2.1356-7.958 0.92926-8.981zm31.523 117.99c0.24268-3.2-0.22703-5.92-1.2213-8.169 2.1372 0.426 4.0944 1.026 5.6288 3.01 0.90812 1.271 1.3309 3.553 1.1117 5.419 0 7.135 0.6576 7.793 6.67 6.666 4.7441-0.852 8.5019 2.765 10.905 0.358 0.65761-0.751-0.7672-2.33-3.3976-5.897-2.7165-3.662-11.101-9.824-14.757-10.31 0 0.05 0.0939 0.105 0.0939 0.158l-0.15657-0.208c-2.8731-1.032-6.7013-1.632-8.6193-3.097-2.5521-2.695-6.3647-4.234-11.382-4.234-9.0765 0.863-13.243-1.189-16.699-8.504-1.59-6.486 0.72728-10.927 4.1546-4.264 9.6613 11.406 29.735 2.075 26.792-11.708-1.1273-2.958-1.7536-5.464-2.7165-7.078 2.145-0.234 3.9534 0.112 6.302 0.722 2.4034-0.473 11.211-2.887 15.109-4.121-6.8187-5.279-11.876-6.288-22.085-5.751-12.972 0.682-18.902 2.907-23.286 5.914-3.3139 2.273-5.2663 7.822-5.5301 11.623-3.9942-0.42-16.482-3.6-25.907-4.846-30.608-3.944-53.972-10.159-71.341-15.51-6.854-2.066-22.438-5.164-34.456-6.761-12.018-1.596-27.885-4.6-35.302-6.665-7.4168-2.066-21.125-4.976-30.513-6.385-9.2949-1.407-32.18-5.402-41.287-6.999-8.6733-0.684-13.632 5.704-17.856 7.957 15.141 3.404 48.833 12.619 108.15 26.738 15.772 3.757 33.142 8.638 38.493 10.704 5.2577 2.16 19.153 5.539 30.795 7.511 20.936 3.568 43.469 8.731 74.359 16.9l12.617 3.455c-3.0046 1.786-5.1324 4.269-6.4242 7.43-1.9579 4.792 0.59107 9.883 1.7849 12.713 0.40161 0.952 4.4842 8.954 18.978 6.691 6.6856-1.044 10.569-8.011 10.991-13.462zm-294.92-73.944c-0.69048-6.224-5.3297-7.205-10.173-6.763-7.3934-0.151-10.767 8.169-8.2318 12.205 1.8984 7.564 21.686 9.775 18.405-5.442zm0.0947-15.297c3.7429-4.35 3.2606-16.677-9.4805-16.677-7.7926 0-11.923 11.353-6.6661 16.61 5.5388 5.54 13.536 4.221 16.147 0.07zm-0.4157-28.542c1.6424-2.987 1.4804-7.164-2.3048-12.26-4.3339-5.24-17.212-1.228-17.212 5.718-0.69048 14.926 14.729 15.461 19.517 6.542zm-4.1163-27.445c2.5106-2.044 6.7882-5.871 2.7345-13.526-3.2872-6.01-11.898-7.015-15.99-4.134-4.2776 2.569-6.7397 12.148-2.2327 16.654 4.0364 4.038 9.5728 5.325 15.488 1.006zm2.0096-27.99 2.935-4.663c1.972-3.192-1.1508-7.353-3.6857-10.451-4.8827-5.915-14.834-4.733-18.495 2.026-2.5341 4.788-1.9078 11.309 2.2241 14.22 6.0085 4.412 13.612 2.711 17.022-1.132zm-3.984-25.459 3.6254-3.798c2.6163-3.662 2.5083-11.702-4.4404-13.956-11.967-4.951-20.522 8.454-15.733 14.274 4.0364 4.883 9.601 7.142 16.548 3.48zm229.44-11.377-0.34524-5.008c-3.7984-0.387-8.7407-0.04-21.812-0.73-14.031 0-49.526-1.101-60.256-1.936l-0.51747-2.586 1.298 0.03 0.17302-17.42c-35.612-0.303-112.85-0.267-136.23-0.03 0.89716 4.937-3.2238 9.567-6.8399 12.563 7.42 0.376 76.047 3.005 125.06 4.413l14.511 0.382 0.50338 2.767-0.2286 5.054c18.026 1.529 73.636 3.425 84.685 2.491zm-226.65-25.271v-3.626c0-5.727-5.8668-7.78-12.063-7.123-8.0744 0.938-10.043 10.146-4.8788 16.248 4.6001 5.539 16.942 2.95 16.942-5.499zm352.51 204.06c-8.2592-1.359-30.399-4.363-38.673-5.849-0.1096-1.345-0.21137-3.958-0.36794-4.98 4.9633 0.311 34.164 5.365 39.3 5.919-0.32098 1.657-0.24269 3.163-0.25835 4.91zm-592.99-186.29c-1.0318-1.784-4.1304-2.535-6.9471-1.877-3.1917 0.844-4.9759-0.1-4.9759-2.441 0-3.662 5.8206-9.671 23.19-23.66 4.694-3.85 8.6381-8.45 8.6381-10.234 0-4.412 7.6266-12.704 12.321-12.704 2.066 0 0.011 3.987-2.1043 6.169-4.4122 3.944-8.2451 9.727-9.9345 14.046-3.0994 7.229-2.9107 7.417 1.5023 4.037 2.6281-1.972 6.0077-4.882 7.5108-6.385 5.2569-5.444 19.621-14.739 22.908-14.739 1.8773 0-2.4418 5.914-9.5768 13.144-15.867 16.149-7.7926 15.773 9.0131-0.376l11.079-10.609-1.8781 9.952c-1.3144 7.136-1.0326 9.389 1.1265 7.98 1.6902-0.939 3.0046-0.563 3.0046 1.033 0 1.502 3.7546 2.723 8.1676 2.723 9.0131 0 9.482 4.507 1.0334 9.013-2.9107 1.502-8.4494 4.882-12.487 7.605-5.3516 3.567-8.5434 4.131-12.206 2.159-3.4736-1.877-6.4774-1.502-10.421 1.315-3.0994 2.159-9.5768 3.849-14.365 3.755-4.7888-0.09-11.83 0.563-15.679 1.502-4.2251 1.033-7.6994 0.469-8.9199-1.408zm401.85-10.306c-0.22625-7.304-0.36716-15.463-0.45093-23.186l26.26-0.411c-0.002 8.008-0.002 16.618 0.41414 24.542-4.1609 0-21.187-0.634-26.223-0.945zm-0.49085-27.293c-0.0509-6.003-0.0697-11.581-0.0697-16.076l26.031-0.09c0.27479 4.353 0.32724 9.742 0.33664 15.608l-26.298 0.556zm34.852-15.974c7.3746 0 15.313 0.254 25.863 0.339l0.84784 14.333-26.364 0.558c-0.18319-6.147-0.34055-11.643-0.3476-15.23zm26.878 19.117 0.96683 25.786h-26.93c0.0822-6.903-0.17614-16.492-0.43919-25.373l26.402-0.412zm-379.15 5.633c-1.8781-1.221-6.3842-1.69-9.9525-1.033-8.6365 1.69 1.8601-13.927 8.1128-25.865 18.172 0.75 43.96 1.323 54.678 1.99-4.9774 8.575-12.561 16.552-17.819 16.552-2.9107 0-7.6055 1.689-10.421 3.756-3.9433 2.816-6.1024 3.004-8.8252 0.751-2.7228-2.254-4.3191-1.879-6.854 1.595-3.8493 5.164-4.1312 5.258-8.9192 2.254z"/>
  <path id="path2993" style="fill:#217867" inkscape:connector-curvature="0" d="m56.577 510.27c1.2205-7.23-0.75077-8.451-11.547-6.949-8.8252 1.221-13.475 0.198-13.031-5.52-4.9375 1.624-6.6786-0.569-7.355-2.763-0.0916-2.639 4.8764-6.61 6.5604-10.138 7.0411-6.477 19.457-17.349 24.059-21.762 4.6001-4.413 13.237-11.361 19.152-15.492 9.2949-6.477 24.317-22.626 24.317-26.287 0-0.564-8.0737-0.939-17.932-0.846-21.782 0.377-22.157-1.783-3.5675-21.875 7.0411-7.699 14.74-17.744 16.899-22.439 13.52-28.823 17.838-39.621 16.43-41.123-0.93865-0.844-7.51-1.782-14.741-1.877-7.1342-0.187-13.706-0.939-14.552-1.784-2.3462-2.347 6.1024-16.9 12.862-22.252 3.3804-2.722 7.0426-6.665 8.1684-8.918 3.3796-6.854 8.0744-14.365 15.21-23.847 11.923-15.867 11.923-15.774-4.1312-14.271-17.463 1.596-18.59-0.939-7.4176-18.214 20.562-31.922 32.767-54.831 34.362-64.313 1.4084-8.544 0.93865-9.294-6.6661-10.797l-8.1676-1.595 9.0131-13.051c14.272-20.749 19.81-38.869 19.81-64.688 0-25.818 4.788-40.935 12.862-40.935 7.135 0 8.8252 6.198 5.5388 20.749-2.722 12.018-1.3136 33.519 2.5349 38.869 4.2259 5.822 15.773 37.743 17.088 47.132 0.84549 5.539 5.5388 15.679 10.515 22.532 4.9767 6.853 10.515 15.21 12.206 18.59 3.7554 7.23 1.5023 16.43-4.1312 16.43-7.6047 0 4.413 25.726 14.459 30.701 15.772 7.887 22.063 22.815 11.078 26.289-2.9107 0.939-5.2577 2.441-5.2577 3.473 0 3.661 10.609 19.059 13.05 19.059 2.8167 0 13.425 22.251 13.425 28.166 0 1.972-1.6894 3.568-3.8493 3.568-7.7918 0-6.1024 4.882 7.9805 23.566 7.8866 10.608 14.459 20.28 14.459 21.593 0 1.408-2.9107 3.192-6.3842 4.037-5.8214 1.503-9.8578 0.658-32.673-6.384-8.2616-2.535-8.4494-2.441-7.0411 4.506 0.93866 4.789-0.28183 9.013-3.9433 13.239l-5.2577 6.102-11.923-5.257c-6.5729-2.911-12.487-4.695-13.145-4.038-1.6902 1.69-16.336-12.674-20.091-19.716-4.0372-7.51-3.6614-11.079 1.0334-11.079 2.1591 0 4.0364 1.316 4.0364 3.005 0 1.784 0.65682 2.441 1.5023 1.597 0.84471-0.845 0.28183-5.822-1.1273-10.985-1.5955-5.727-1.6894-9.577-0.1871-9.577 1.3144 0 2.441 1.784 2.441 3.85 0 2.065 2.9099 7.135 6.479 11.266l6.5714 7.417-2.8167-10.14c-3.6614-13.707-1.1265-15.303 4.7888-2.91 2.6288 5.539 6.4774 10.515 8.3547 11.172 2.8175 0.939 3.0046 0 0.65839-4.225-3.4744-6.572-3.5683-8.449-0.46972-8.449 1.3136 0 3.0038 2.628 3.8493 5.914 0.84471 3.286 3.3796 8.356 5.8206 11.267 4.2251 5.352 4.2251 5.352 2.441 0-4.3183-12.394-4.4122-14.177-0.46894-13.615 2.1591 0.377 6.1024 2.348 8.6381 4.507 4.3183 3.568 4.4114 3.381 1.6894-1.784-3.6614-6.853-1.1273-10.139 4.3191-5.633 3.4736 2.817 3.7554 2.254 2.1591-3.942-2.7228-10.892 2.1591-8.825 7.6047 3.286 2.6288 5.82 6.0085 10.609 7.4176 10.609 1.5008 0 4.8819 1.972 7.604 4.318 7.3229 6.667 5.5395 1.316-5.4448-16.148-6.7608-10.797-12.112-16.337-17.088-17.651-6.5721-1.69-7.4176-1.127-8.8252 5.727-1.4084 7.041-2.3478 7.605-11.642 6.76-6.3842-0.562-13.989-3.944-20.561-9.201-11.361-8.919-16.431-10.421-16.431-4.6 0 1.972-1.7841 5.164-4.0364 6.947-3.1925 2.723-4.8819 2.63-8.5442-0.562-2.5349-2.254-7.3229-4.695-10.609-5.446-4.788-1.22-6.2903-0.1-7.6047 5.539-0.93865 3.943-3.3804 10.422-5.5395 14.646-2.066 4.131-3.1917 8.075-2.441 8.826 0.75155 0.751 3.2865-2.441 5.7274-7.136 4.8827-9.482 8.6373-9.107 4.0372 0.469l-3.0978 6.198 5.444-6.291c3.0046-3.474 5.5403-4.882 5.5403-3.099 0 1.784 3.1925 0.751 7.8858-2.534l7.9813-5.728v6.666c0 3.662-1.2205 7.418-2.6296 8.262-1.5015 0.939-2.722 3.849-2.722 6.479 0 5.257-17.745 24.035-22.627 24.035-3.0986 0-7.6055 7.792-10.421 17.838-2.066 7.323 2.9107 8.168 5.1638 0.939 0.93865-2.816 3.5675-6.666 6.0085-8.637 3.7562-3.099 4.1312-2.911 2.5357 1.221-1.1273 3.097-0.75155 4.224 1.0326 3.097 1.5015-0.938 3.9425-4.788 5.3516-8.449 1.4084-3.756 3.2857-6.009 4.2243-5.071 0.93944 0.939-0.46971 6.479-3.1925 12.3-6.8524 15.21-3.2857 15.772 4.3198 0.751 7.9797-15.961 7.416-15.116 9.0131-13.52 0.75077 0.751-0.46972 5.727-2.6288 10.985-2.2539 5.257-4.038 10.515-3.9433 11.642 0.1871 4.037 10.515-10.515 10.515-14.74 0.0932-2.442 1.2205-6.197 2.6281-8.356 1.8773-2.816 2.2539-1.314 1.1265 5.257-1.4084 8.825-1.3136 9.013 2.6288 4.132 4.0372-4.882 4.2251-4.601 4.2251 4.693 0 5.353 1.0326 9.764 2.3478 9.764 4.5062 0 7.9797-7.041 6.3835-13.144-1.1265-4.318-0.75155-5.633 1.4092-4.318 1.6894 1.033 3.0978 3.38 3.0978 5.257 0 3.474 8.1676 12.205 11.359 12.205 0.94022 0 1.0334-3.849 0.0947-8.637l-1.5955-8.543 6.4774 5.915c3.5675 3.286 4.997 8.457 7.063 8.457 5.5388 0.187 10.328 3.44 13.384 10.383-2.7455 2.491-6.7467 5.384-11.791 7.319 2.3838 4.787 4.5664 9.844-2.3016 11.768-4.5641 1.428-9.6402 0.285-12.738-2.251-2.0652-1.69-4.6948-2.252-5.8206-1.221-1.1265 1.128-6.5721-3.285-12.111-9.67-9.6715-11.172-10.14-11.36-13.051-5.915-1.6902 3.1-4.5062 5.634-6.3842 5.634-3.5675 0-11.736 9.858-17.557 21.218-2.816 5.446-2.816 6.01 0.0947 3.287 9.2002-8.638 10.609 2.346 1.6894 12.956-3.1917 3.849-8.4494 7.792-11.641 8.731-3.0994 0.939-8.0744 6.197-10.892 11.548-2.9099 5.539-6.8532 9.576-9.0123 9.201-2.1599-0.375-6.1032 1.69-8.7313 4.601-2.6288 2.91-7.1358 5.351-9.9518 5.351-2.9107 0-8.826 3.004-13.238 6.76-5.0698 4.224-9.0131 5.821-10.515 4.224-3.2872-3.285-11.924-0.844-13.708 3.85-1.5023 3.755-9.8578 5.258-9.2949 1.691zm356.45-227.06 0.17771 0.106 41.598 7.395 2.3619 3.308 39.214 4.724 4.7246 4.252 33.072 6.614 5.1974 3.308 32.6 3.307 1.8867 3.307 33.076 2.834 1.8867 2.835 6.944 0.81c0-4.456-0.28966-7.849-0.28966-10.75-4.7442 1.062-8.4471-1.08-9.9502-0.141-3.1001 1.877-5.9967-5.013-5.9967-9.708 0-1.784-3.1001 0-6.7639 4.036-3.7499 4.038-7.6016 6.479-8.635 5.446s0.93944-4.037 4.3214-6.853c7.8834-6.385 6.5682-14.365-2.2546-14.365-3.6638 0-7.8913-0.846-9.4805-1.877-1.597-1.128-5.1669-0.282-7.9852 1.877-5.5348 4.225-11.641 5.164-11.641 1.784 0-2.348 22.155-19.059 25.255-19.059 1.0334 0 1.1273 1.783 0.28183 4.037-2.0668 5.445 1.597 4.976 9.6684-1.409 3.7577-2.91 8.361-5.069 10.24-4.6 2.2468 0.47 3.9378-4.225 5.253-13.895 1.0334-7.981 1.4092-15.022 0.84549-15.586-0.56366-0.563-3.0062 4.132-5.5427 10.422-2.5286 6.29-5.0651 10.046-5.6288 8.262-0.56366-1.69-2.1607-2.441-3.4759-1.596-4.1257 2.535-6.0985-7.135-2.7244-12.676 4.7911-7.604 0.56366-9.857-4.5954-2.534-15.963 22.252-22.163 24.88-16.057 6.666 4.0396-11.924 9.7623-19.434 14.553-19.434 7.0379 0 16.62-6.103 18.123-11.642 1.5892-5.54 1.6832-5.54 5.5348-0.469 0.95509 1.399 4.6189 5.183 7.9147 7.618 0-5.821-0.0705-19.049-1.0099-24.871l-6.5291-19.552-3.288 10.516c-2.1529 7.135-3.4681 8.825-3.9378 5.258-0.37577-2.911-1.4092 0.564-2.2546 7.792-1.5031 12.675-1.691 12.957-6.3882 8.262-3.3741-3.474-3.9378-5.633-1.9728-7.698 6.2003-6.103 2.3486-7.512-4.1257-1.502l-6.9518 6.384 1.9728-9.295c1.0334-5.07 4.7911-12.299 8.267-16.055 3.4681-3.662 6.2864-8.732 6.2864-11.173 0-3.285 2.2546-4.506 7.9774-4.506 2.4112 0.226 9.1125-1.015 11.954-1.326 0-10.328-0.18006-21.295-0.94727-25.293-4.8537-0.02-10.075 3.808-13.363 8.69-3.382 4.788-9.3787 7.038-10.036 6.381-1.5892-1.595 9.8641-25.537 12.393-25.537 4.1335 0 7.2884-12.942 9.8719-17.416l-0.81417-21.674-5.8636 12.99c-1.9728 8.262-5.1669 16.524-7.3198 18.214-2.0668 1.784-3.8517 4.976-3.8517 7.135 0 4.788-13.332 29.856-15.869 29.856-0.93943 0-3.1941 3.004-4.7833 6.666-2.9122 6.197-2.6304 6.572 4.8772 6.572 9.2065 0 10.326 4.882 2.5365 11.923-2.9122 2.63-5.2608 6.854-5.2608 9.39 0 2.441-4.2196 9.107-9.2926 14.645-9.4805 10.422-11.829 16.994-5.9106 17.088 1.7771 0 4.9712 1.126 7.0379 2.441 3.1001 1.877 3.1941 3.192 0.56366 6.29-1.7849 2.159-3.0062 4.977-2.8183 6.197 1.0334 5.539-0.84549 8.919-10.138 18.495-5.4487 5.634-12.3 13.145-15.209 16.618l-5.3516 6.385 11.548-1.784 11.55-1.878-6.2003 7.886c-3.472 4.32-7.7903 7.981-9.5744 8.074-1.7834 0.1-3.2857 1.409-3.2857 3.1 0 1.323-1.3113 1.87-3.7147 1.689l-12.154-3.383c-3.5401-1.363-7.5781-3.123-12.015-5.255-7.7926-3.755-15.773-5.821-19.06-4.976-4.4122 1.221-7.4168-0.939-13.895-9.858-8.9184-12.299-7.6979-15.491 5.8206-15.584 8.826-0.1 8.9199-0.659 1.3152-9.013-13.895-15.21-30.608-42.719-27.79-45.629 0.93865-0.846 5.9137-1.597 11.078-1.597 5.1646 0 9.4828-0.563 9.4828-1.315 0-0.75-4.2243-5.539-9.2949-10.608-5.0698-5.07-9.2941-10.985-9.2941-12.957 0-2.066-2.3478-5.82-5.2577-8.356-2.9107-2.441-5.3516-5.915-5.3516-7.698 0-4.225-8.7313-19.435-11.267-19.435-3.2849 0-2.2531 12.768 1.8773 22.533 5.1645 12.299 0.37656 11.83-6.5714-0.752l-5.4448-9.857 1.3136 13.238c1.3152 12.299 1.1273 12.863-2.6288 7.886-2.816-3.567-3.8486-9.67-3.2849-19.153 0.46894-7.698 0-13.895-1.1273-13.895-1.1265 0-1.972 4.507-1.972 10.045 0 5.447-2.441 14.647-5.3516 20.374-4.2251 8.263-5.2569 9.201-5.2569 4.413 0-3.474-1.2205-5.351-2.7228-4.319-1.5023 0.94-2.5357 3.099-2.3478 4.788 0.84549 7.229-0.46972 12.394-3.191 12.394-1.7842 0-2.2539-2.536-1.2205-6.667 2.0644-8.355-1.0334-8.355-7.2305 0.189-5.3509 7.323-3.9433 17.087 2.6288 17.087 3.0994 0 3.6614 1.69 2.2539 7.229-2.7236 10.984-6.76 13.613-6.854 4.506l-0.0932-7.792-3.9433 7.229c-5.8214 10.704-9.4828 8.919-4.7896-2.253 6.01-14.459 2.2539-13.895-5.2569 0.845-3.5675 7.229-8.5434 14.647-10.89 16.617-3.7562 3.193-3.9433 2.818-1.5023-3.661 1.5023-3.943 2.7228-9.201 2.6288-11.642 0-3.755-0.56366-3.567-3.0046 0.845-4.0372 7.324-13.144 17.181-18.683 20.092-3.0994 1.784-1.972-1.596 3.7546-10.797 4.6009-7.323 7.4176-14.271 6.3842-15.304-1.1258-1.032-3.0978 0.189-4.6001 2.723-1.4084 2.535-5.4456 7.887-9.0131 11.83l-6.5721 7.323 4.0364-7.981c2.1607-4.318 3.9441-9.294 3.9441-11.078 0-1.69 5.6327-7.886 12.487-13.707 9.1078-7.793 13.426-9.952 15.772-7.98 5.0714 4.224 19.435-5.259 19.435-12.863 0-5.164-1.3144-6.009-9.2002-6.009-5.1638 0-9.2949-1.314-9.2949-3.005 0-1.595-2.3478-2.347-5.3516-1.502-6.1971 1.596-7.2297-3.849-1.5962-8.544 2.066-1.689 4.5069-6.853 5.3509-11.547 0.93866-4.694 4.1312-11.548 7.1358-15.116 5.3516-6.479 5.4456-6.572 4.2251-0.751-1.9712 8.919 1.972 7.229 6.2903-2.629 2.816-6.29 5.3516-8.45 9.4828-7.981 4.4122 0.47 6.6661-1.877 9.9518-10.045 4.319-10.704 5.4456-18.402 2.8167-18.402-2.8167 0-18.497 8.637-23.566 12.957-3.5675 3.004-3.0038 1.314 1.9712-6.197 8.2623-12.393 7.1358-15.398-2.5341-6.572-6.6661 6.197-6.854 6.197-3.9433 0.656 1.6894-3.191 4.1312-6.571 5.5388-7.416 5.5388-3.38 13.801-27.415 15.21-44.314 1.2205-13.895 0.5621-19.247-2.8175-24.317-4.6001-7.136-2.6281-10.797 3.7562-6.854 3.0978 1.972 3.6614 8.919 3.0046 36.147-0.37655 18.589-1.972 35.207-3.4743 37.085-1.5963 1.878-2.3478 4.882-1.6894 6.76 0.75077 2.253 2.3462 1.407 4.7872-2.441 3.5675-5.821 3.7562-5.634 7.7926 5.257 2.2539 6.197 5.3516 11.172 6.76 11.266 4.694 0 9.2018 4.226 9.2018 8.544 0 3.381-0.75154 3.661-3.1925 1.22-1.7841-1.783-5.3516-3.191-7.8866-3.191-5.7266 0-13.99 11.735-11.924 16.899 1.8773 5.071 36.146 15.961 39.526 12.582 1.5023-1.409 4.3183-1.972 6.2903-1.221 1.972 0.844 3.6614 0.09 3.6614-1.597 0-1.69-1.7826-3.661-3.8486-4.506-4.319-1.596-15.585-19.904-18.683-30.138-1.0334-3.661-3.6622-8.543-5.8222-10.985-5.0698-5.821-11.172-32.015-11.36-48.633-0.0939-15.022-3.7554-29.48-9.2002-36.616-3.0046-3.943-4.6948-4.318-9.2018-1.877-6.5721 3.474-7.1342 11.267-1.2205 16.242 3.3812 2.816 4.038 6.76 2.9107 18.496-1.9705 21.875-9.2942 35.77-30.514 58.116-10.421 10.891-18.965 20.654-19.058 21.688 0 1.032 4.5062 3.192 10.14 4.694l10.139 2.723-2.9099 12.205c-2.2523 9.858-5.8206 15.116-18.026 26.381-15.303 14.272-18.59 18.967-11.267 16.056 3.1925-1.221 3.6622-0.1 2.2539 5.445-1.2205 4.882-0.8447 6.384 1.3152 5.07 6.2895-3.85 8.4487 1.502 3.4736 8.544-2.7228 3.942-5.6335 10.139-6.5729 13.707-0.84471 3.661-7.6039 13.425-14.927 21.688-7.3237 8.262-13.333 16.054-13.333 17.368 0 1.409 3.5683 1.972 7.8866 1.315 6.1032-0.938 7.9805-0.188 7.9805 3.098 0 4.695 5.4456 5.727 9.482 1.689 1.4092-1.407 5.2585-1.877 8.5442-1.031 4.694 1.313 5.2577 2.347 2.9099 5.257-1.6894 1.972-5.2569 3.662-7.8858 3.662-6.1964 0-23.659 15.115-23.659 20.374 0 2.816 1.5023 3.473 4.6001 2.159 2.6288-1.033 4.2971-5.031 6.0813-5.782 2.066-0.846 3.8039 2.132 3.8039 5.607 0 6.382 4.7849 6.207 9.4797 0.574 1.6902-2.16 7.3926-0.681 9.6456 0.165 3.4744 1.313 2.0621 1.655-2.8199 5.317-4.8819 3.662-5.2718 4.41-3.0195 8.729-1.4444 3.548-3.6701 1.763-8.0502 4.683-2.7682 5.4-6.6543 3.823-8.5238 3.383 1.7849-1.879 5.5317-1.964 5.5317-4.123 0-3.193-0.75077-3.193-4.694-0.1-3.7562 2.911-3.6614 2.442 0.46894-2.346 7.1358-8.45 5.5458-9.543-5.1567-2.878-12.018 7.418-12.324 8.079-4.7191 0 3.4744-3.661 5.4464-7.417 4.5062-8.263-1.5955-1.595-30.513 23.19-31.733 27.133-0.74999 2.63 10.776-1.919 26.642-0.322 8.4494 0.844 16.273-3.835 25.348-8.302 7.1554-5.221 14.002-13.267 20.005-19.049 2.0417-2.714 10.855-11.983 11.858-14.959-0.71397-2.825 4.1335-5.615 4.1335-8.715 0.51825-1.292-1.5172-3.294-3.8634-3.294-3.0986 0-3.4744-1.127-1.4084-4.975 4.8819-9.015-0.56366-8.356-6.854 0.844-3.9433 5.727-8.1684 8.92-11.454 8.731-6.6661-0.562-6.6661 0.1 1.4084-12.768 7.0411-11.173 14.739-16.243 16.524-10.892 1.4076 4.413 7.6987 3.944 9.482-0.844 0.84549-2.159 3.7562-3.943 6.5721-3.943 5.1638 0 13.614-13.895 13.614-22.251 0-7.699 3.9425-4.225 10.985 9.764 3.7546 7.605 8.5434 13.801 10.609 13.801 1.9712 0 5.1638 2.723 7.1358 6.102 2.6281 4.695 4.3183 5.446 6.9463 3.287 2.5357-2.066 4.3198-1.69 6.854 1.315 1.8789 2.252 4.8819 3.567 6.6669 2.91 3.9433-1.597 18.777 13.332 16.054 16.055-1.0318 1.125-3.0038 0.282-4.2243-1.878-1.3144-2.066-3.2865-2.91-4.3198-1.879-0.93865 0.939-3.3796-0.281-5.3509-2.722-3.1925-4.225-3.4743-4.037-3.6622 1.972-0.28183 6.384-0.46893 6.291-4.6001-1.972-4.694-9.576-10.046-11.735-7.7926-3.191 1.6902 6.665-3.1917 5.726-7.2282-1.409-3.4744-6.009-12.3-15.398-13.333-14.177-0.375 0.469-1.972 4.507-3.3796 8.825l-2.7228 7.981-1.8773-7.981c-4.6948-19.904-6.2903-21.688-6.479-7.323-0.18789 7.699-1.4084 13.989-2.9107 13.989-1.4076 0-2.6281-3.567-2.6281-7.98 0-6.197-1.2205-7.981-5.2577-7.981s-5.3509 1.784-5.3509 6.948c0 5.915 0.65682 6.478 3.9417 3.661 6.01-4.975 4.7888 1.127-1.3136 6.667-7.2329 2.87-8.5802 6.404-9.6018 9.45-0.0853 3.605-0.62394 6.298-1.1414 8.727-2.1176 3.835-19.531 16.982-23.747 21.931-0.44154 1.937 2.7267 3.504 2.1184 3.867-12.273 10.52-25.119 16.757-39.447 27.279 0.5073 1.742 2.4668 5.096 2.365 5.371 7.8709-3.207 22.905-13.779 29.436-14.127-3.9942 5.125-48.475 28.047-61.072 32.708-0.73511 2.417 1.7301 6.067 2.7659 8.114 9.8813-3.899 19.172-8.986 30.813-14.012 0.006 3.309-7.1616 5.732-16.119 10.205-9.9651 4.926-3.6528 2.478-8.7274 5.247-15.62 5.203-27.103 12.522-35.735 13.752 0.83609 2.795 3.0469 5.318 3.6951 7.986 5.3767-2.514 11.1-4.12 18.119-6.96l8.0705-2.991c-0.86976 0.878-1.5328 1.216-2.3228 2.04-8.3156 4.66 0.20589 0.544-7.939 4.249-5.8151 3.73-11.633 6.294-16.591 8.644-6.7945 3.422-29.536 14.007-38.341 18.83 0 3.286 1.5023 4.461 3.1526 7.464 6.9119-2.84 11.609-6.313 15.622-8.09 2.4425-1.218 5.3947-3.148 7.6345-3.042-1.5798 2.861-6.0108 4.703-9.0162 7.055-8.0236 4.775-20.276 11.481-26.855 15.141-5.5521 2.626-16.113 10.007-21.392 12.414 0.70144 2.373 2.1889 4.541 4.128 7.611 3.0814-2.729 10.598-6.108 15.48-9.083 3.3491-1.791 8.8839-4.871 11.089-4.293-0.8494 1.8-3.908 3.082-12.246 7.774-18.603 11.295-20.122 11.764-39.362 23.824 0.69127 3.438 2.6022 9.228 4.4694 12.34 17.801-0.51 46.649-0.01 51.552-0.497 1.5548-5.852 8.0228-9.417 11.743-6.872-7.1076 1.412-17.546 18.345-1.0138 24.201 0.004 1.426-0.22547 3.32-0.45328 5.558-2.1771 1.45-5.4041 2.443-5.8722 6.727 2.8144-0.414 5.4111-1.476 7.7879-1.107 5.1716-9.534 14.501-9.157 20.186 0 4.9947 0.642 8.3022-0.52 12.303-0.148 1.4499-1.028 2.953-1.432 4.1813-2.439 1.4561-1.194 3.0939-1.31 5.2702-1.575 9.0836-3.158 28.502-2.878 40.999-3.223 11.642-0.564 35.552-1.184 52.467-1.621 16.612-1.059 25.762-1.693 29.292-1.448 0.0219 0.973 0.49711 6.394-0.0141 10.426 3.281 0.02 5.7478 0.04 8.0016 0.04 0.0986-4.065-0.029-18.507 0.27087-21.805l-0.67169-26.443 20.662-1.732c10.234-1.784 47.504-4.59 58.099-5.108 1.0483 6.027 0.56523 37.451 1.0545 56.988 4.7348-0.269 3.4125-1.409 7.7378-1.318 0.13466-1.902 0.45406-10.517 0.71084-11.747 2.7236-0.408 18.256-0.764 22.008-0.478-2.3783 1.82-2.8355 5.707-0.98876 11.667 2.0722-0.07 4.1288-2.327 6.064-2.153-1.0741-10.925 3.2442-16.494 12.303-18.299 1.1101-0.221 2.2758-0.253 3.4556-0.116l9.2229-0.177c5.2843-0.258 9.4961-0.356 13.669 0.01 3.3585 0.296 8.1887 1.253 11.015 2.791 2.56 1.396 6.3334 3.228 7.0927 5.989l0.70458 1.305c1.1743-0.164 2.4269-0.303 3.7812-0.421 5.073-0.221 14.358-0.654 18.053-0.374l-0.0626-9.665c11.187-9.45 6.1376-22.007-0.28183-25.069-4.1492-2.613-8.4471-2.554-11.524-2.037-6.2159 2.476-11.43 7.303-11.586 13.67-0.93943 0-10.475 0.313-16.777 0.812-1.2682-6.142 2.2077-9.549 4.8772-11.8 3.014-2.377 6.5134-3.515 10.357-4.358l-0.23486-0.892-6.7013 0.223-13.818 0.785c-2.286-2.84-5.574-5.977-6.4195-8.323-1.9415 0.03-6.717-0.56-9.1438-0.106 9.3396 2.021 12.98 11.822 11.054 18.517-2.8653 12.695-20.459 11.569-24.327 6.427-10.391-11.392-2.567-25.87 11.442-27.731l17.09-0.518c3.5464 0.261 8.9951 0.631 13.042 2.175 3.5072 1.338 11.759 3.4 12.612 8.468 7.3511-1.403 12.635-0.08 20.049-0.284-0.0157-7.608-0.0235-13.475-0.12526-17.673l-36.184-20.279v-1.669c-9.0812-5.337-17.45-10.384-20.033-11.619-0.25052-1.421 0.047-2.289 0.0626-3.49-4.9806-2.723-25.099-14.056-26.465-15.497 0.34368-1.424-0.007-1.888 0.19728-3.309-2.6523-1.736-23.516-14.338-25.301-15.963 0.0595-0.428-0.14718-1.856-0.68109-3.469-6.9479-4.036-23.186-15.665-24.299-16.54 0.20433-1.485-0.10099-1.806-0.137-2.71-4.0826-3.24-17.52-11.829-19.938-13.878 0.12291-1.124-0.41804-2.623-0.11743-4.325-3.4978-2.018-15.314-10.745-18.948-13.747 0.72415-1.324-0.3014-2.224 0.23877-3.477-2.7228-0.845-15.429-7.705-20.405-12.118-0.0814-1.651 0.98249-1.577 1.8342-3.018-4.3934-3.31-17.135-15.094-22.723-18.811 1.835-1.681 3.0586-2.7 6.1556-4.581 1.9642 1.012 4.6455 2.183 7.4818 3.235zm-333.63 191.85c12.581-8.451 17.931-8.638 10.421-0.376-7.3237 8.074-4.8827 9.107 4.5069 1.972 10.234-7.886 12.298-8.357 12.298-2.817 0 5.352 2.441 4.976 11.924-1.596l7.9813-5.539-7.2305 1.22c-4.4122 0.751-8.5434-0.375-10.421-2.628-1.972-2.254-5.5388-3.099-9.2949-2.16-9.5768 2.347-7.5108-2.91 7.0411-18.027 8.6381-8.919 13.144-12.11 13.238-9.294 0 3.191 1.5963 3.943 5.6335 2.911 4.788-1.221 5.3516-0.564 3.8493 4.224-1.0334 3.192-0.84471 5.728 0.28183 5.728 3.1917-0.1 19.434-15.679 19.434-18.684 0-3.381-1.0318-3.193-11.454 1.689-8.7313 4.225-9.1063 4.132-16.148-2.91-6.2903-6.29-6.76-7.698-3.4736-11.548 16.055-18.777-0.84549-5.82-30.42 23.19-8.2616 8.168-20.749 20.092-27.79 26.383l-12.769 11.642 10.61-6.103c18.025-10.328 32.579-20.843 33.892-24.316 0.65682-1.879 1.8773-2.63 2.8175-1.879 1.5008 1.408-4.8827 9.39-22.91 28.355-10.234 10.797-7.4161 10.984 7.9813 0.563zm29.011-108.72c7.1358-14.834 11.642-19.716 11.36-12.393 0 1.784-1.7834 6.29-3.8493 9.952-5.5388 9.67-4.694 12.956 1.3152 5.258 2.9099-3.661 5.2569-8.638 5.2569-11.079 0-2.347 0.93866-6.572 1.972-9.201 1.5962-4.13 2.1591-3.755 3.2864 2.441 1.4076 7.324 1.5023 7.324 7.1342-3.943 11.549-23.002 14.084-29.293 12.487-31.734-0.84471-1.408-4.8827 0.657-9.0131 4.6-4.1312 3.944-10.14 8.544-13.426 10.14-6.3842 3.287-23.283 31.827-23.472 39.715-0.0932 2.723-2.722 8.636-5.9137 13.238-5.6335 8.168-5.6335 8.261-0.18867 3.473 3.0046-2.629 8.9199-11.829 13.05-20.467zm105.72-61.309c-5.2585-7.604-5.3516-13.8-0.18789-11.736 2.6289 0.941 4.0364-0.09 4.1312-3.003 0.0932-3.192 1.3136-2.348 4.0364 2.723 4.788 8.825 7.4176 9.482 5.1638 1.314-1.6894-5.821-1.5023-5.727 3.5675 0.563 2.9107 3.662 6.0092 5.916 6.9479 4.975 0.84471-0.843-1.4076-5.162-5.0698-9.482-3.6614-4.318-7.8866-11.078-9.2941-14.928-1.6902-4.224-4.6948-6.947-7.8873-6.947-4.5069 0-4.9759 1.315-3.6614 9.577 1.5023 9.106 1.3152 9.482-4.788 7.604-3.4736-1.127-9.3889-3.286-12.956-4.788-3.6614-1.503-7.6995-2.441-9.0131-2.16-1.3144 0.375-5.1638-2.065-8.6381-5.351-3.3796-3.192-6.2895-4.694-6.2895-3.38s-3.5683-1.596-7.8873-6.572c-4.4122-4.882-7.9797-10.421-7.9797-12.205 0-1.972-2.441-2.723-6.5721-1.972-3.6614 0.752-6.6661 2.347-6.6661 3.662 0 1.221-1.6902 2.347-3.7562 2.347-2.0644 0-4.6933 2.629-5.7266 5.915-1.0326 3.286-5.2577 10.139-9.3889 15.21-4.2243 5.069-7.6039 11.172-7.6039 13.519 0 2.441-1.7841 5.915-3.9433 7.699-2.2539 1.784-3.9433 4.693-3.9433 6.29 0.0932 1.69 2.1591 0.564 4.694-2.535 2.5349-3.004 5.8214-5.07 7.229-4.6 1.5023 0.469 5.6335-4.413 9.1078-10.985 7.229-13.144 10.609-13.989 5.4448-1.408-6.0085 14.459-0.75155 11.359 6.3842-3.849 7.0411-14.928 12.112-18.872 12.112-9.577 0 2.911-2.066 6.385-4.6009 7.792-2.5349 1.409-3.7554 3.475-2.6288 4.601 1.1273 1.127 3.4743 0.563 5.1638-1.126 7.229-7.23 8.1692-2.159 3.1925 18.777-1.4084 6.008-1.0334 7.042 2.5349 5.633 2.347-0.845 4.319-2.723 4.319-4.131 0-1.409 1.1258-1.784 2.6281-0.939 1.597 1.032 2.1591-3.098 1.3152-11.079l-1.2205-12.768 3.2849 9.764c4.9767 14.833 7.4176 15.115 5.9153 0.658-1.4076-12.956-1.4076-12.956 2.441-5.071 2.1591 4.32 3.9441 9.389 4.0372 11.079 0.0939 1.784 1.4092 3.944 3.0986 4.976 1.972 1.314 2.347-0.657 1.0334-6.478-1.0334-4.788-0.75155-8.262 0.74998-8.262 1.4092 0 3.2865 3.567 4.132 7.98 0.84471 4.32 3.0978 7.887 5.0698 7.887 1.8773 0 4.8819 3.755 6.5714 8.356 2.5349 6.76 3.8493 7.792 6.854 5.257 2.9107-2.347 4.5062-2.065 7.4168 1.408 3.2865 4.038 3.6614 4.038 4.5069 0 0.46893-2.346-1.0334-6.947-3.3796-10.234zm-96.798-10.326c-0.0932-3.381 8.5434-18.496 9.7639-17.182 0.84549 0.752-1.1258 5.257-4.1304 10.046-3.0986 4.788-5.6335 7.98-5.6335 7.136zm87.408-24.787c0-0.751-5.4448-7.323-11.923-14.646-12.487-14.083-14.459-21.688-7.8873-30.326 3.8509-5.163 3.8509-5.163 3.9441 0 0.0939 5.633 7.0411 16.149 9.201 13.99 0.75077-0.752 0-5.164-1.5962-9.67-1.5955-4.6-2.347-9.859-1.6902-11.736 0.65682-1.879 2.066 0.469 3.0978 5.07 1.0334 4.694 6.5721 13.613 12.3 19.903 9.9518 10.985 12.206 7.042 2.5357-4.506-2.5357-2.911-6.6661-10.046-9.2949-15.867-5.4456-12.111-8.2631-14.459-16.618-14.552-5.0706 0-5.9153 1.408-5.9153 9.2 0 7.324-1.1258 9.295-5.0698 9.295-5.4456 0-9.2949 9.952-6.5714 16.994 2.3462 6.102 6.1024 2.535 4.3183-4.131-0.93865-3.662-0.46971-5.07 1.2205-4.037 1.5955 0.939 3.5675 5.914 4.5062 10.985 1.0326 5.163 3.3804 9.388 5.2577 9.388s6.1971 3.568 9.5768 7.886c5.3516 7.042 10.609 10.329 10.609 6.76zm-90.601-29.292c-0.84393-0.845-2.3462 0.657-3.3796 3.192-1.4084 3.849-1.1265 4.131 1.5023 1.502 1.8773-1.784 2.6288-3.943 1.8773-4.694zm23.472-27.603c1.6902-3.755 3.0994-5.07 3.1925-2.816 0.0939 2.159-1.5955 6.946-3.6614 10.609-5.4448 9.482-4.8827 11.454 1.8781 6.76 7.3237-5.164 12.675-5.351 12.675-0.469 0 1.97 1.7834 5.069 3.9425 6.947 2.2539 1.784 4.038 2.535 4.038 1.596 0-1.971-5.4464-11.925-9.5768-17.557-7.4168-9.952-7.1358-30.983 0.37577-28.073 2.1591 0.752 3.9425-0.939 4.694-4.505 0.56367-3.193 1.3144-1.034 1.5023 4.787 0.28183 7.887 1.0326 9.577 3.0046 6.667 2.0644-3.193 2.6281-2.629 2.816 2.628 0.0939 3.661 0.75077 5.258 1.5023 3.568 0.65761-1.689 3.5683-2.441 6.3842-1.689 6.854 1.782 6.479-1.597-1.4076-15.492-3.6622-6.385-6.6669-13.52-6.6669-15.867 0-3.944-0.75076-3.944-9.2949-0.09-6.6645 3.004-9.2942 5.915-9.2942 10.233 0 7.7-7.7926 27.322-10.891 27.322-1.2205 0-2.3462 1.69-2.3462 3.85 0 2.064-2.9115 8.261-6.5729 13.613-3.6622 5.351-6.6653 10.984-6.6653 12.58 0 3.85 16.429-16.055 20.372-24.598zm61.777-25.631c0-0.939-3.5667-5.727-7.9797-10.703-4.3183-4.977-7.8866-10.703-7.8866-12.675s-5.3516-9.389-11.924-16.431c-11.079-12.11-14.834-19.528-9.7639-19.528 1.2205 0 1.8773-3.849 1.4076-8.637-0.75077-8.261-0.65683-8.168 2.066 1.503 2.7236 9.482 13.801 20.278 17.275 16.899 2.5349-2.535-1.4084-10.234-4.3183-8.45-1.5031 0.844-4.038-1.69-5.6335-5.82-1.597-4.038-4.038-9.483-5.3516-12.018-1.2205-2.536-2.441-12.111-2.5357-21.219-0.28183-24.692-3.8486-30.701-6.0077-10.14-0.93865 9.295-1.7841 22.909-1.7841 30.42-0.0947 7.98-2.6288 19.716-6.385 28.729-6.6653 16.243-6.2895 17.933 1.972 10.609 5.0698-4.507 5.1638-4.507 2.066 1.314-2.441 4.789-2.3478 5.915 0.46893 5.915 1.8781 0 4.9759-1.407 6.6653-3.191 2.5357-2.442 3.1925-1.597 3.1925 3.755 0 8.544 2.441 15.397 5.5403 15.397 1.2205 0 1.8773-3.286 1.4076-7.323-0.56366-4.038-0.37577-5.82 0.18789-3.943 0.65682 1.784 2.9099 3.286 4.8819 3.286 2.066 0 5.1638 4.789 6.854 10.703 2.1591 7.042 4.4122 10.234 6.7592 9.388 1.972-0.751 3.5683-0.187 3.5683 1.221s1.1265 2.535 2.6288 2.535c1.4076 0 2.6281-0.75 2.6281-1.596zm-88.065 313.96c2.2539-5.634 5.2569-10.328 6.6661-10.328 2.5341 0 1.7834 4.507-2.2531 14.365-1.4084 3.662-1.1265 4.506 1.1258 3.098 1.6902-1.033 4.7888-6.009 6.9487-10.984 2.0644-4.977 4.9751-9.107 6.5714-9.107 1.5023 0 5.8214-4.883 9.5768-10.798 9.3881-15.021 10.985-11.265 2.347 5.351-3.9433 7.512-6.5721 14.177-5.9153 14.929 1.8789 1.784 13.615-14.177 19.247-26.101 2.5357-5.539 5.2585-9.482 6.0092-8.731 1.5955 1.503-0.12917 13.095-5.9498 22.671-2.0605 2.273-2.6946 4.546 0.23642 6.615 3.6849-0.791 5.7674-8.494 9.4014-4.134 1.6902 2.723 3.0046 0.495 6.2903-2.791 5.5388-5.445-5.2076 20.142-9.7138 27.276-17.625 0.04-36.431-0.526-54.624-1.003l4.0364-10.328zm64.358 14.286c0.17771-4.799-0.17771-9.065 1.067-13.331 0-4.319 2.6422-5.932 4.1445-5.932 2.6523 0.711 3.162 11.39 2.6288 18.908-1.4225 0.751-3.93 0.713-7.8404 0.355zm13.711 0.164c1.244-3.436 0.53313-6.873 0.71084-10.31 0.37655-9.857 5.4933-12.125 5.7415 8.276-0.87759 1.047-4.3018 4.215-6.4524 2.034zm11.884-2.445-0.42509-3.421c0-1.408 1.1054-3.491 3.8282-2.74 4.1312 1.032 4.4733 1.666 3.3467-4.248 1.9752-9.61 4.871-12.057 10.234-6.384 4.4373 0.317 9.6879-0.265 13.931-1.37-0.3562 4.919 0.33663 12.271-0.65447 17.761-0.1417 0.784-0.31784 1.531-0.53626 2.226-3.5965-3.039-11.059-0.372-15.745-0.421-8.7313 0-13.979-0.09-13.979-1.403zm387.39-6.339c-4.8694 0.914-11.79 4.202-13.982 8.762-3.061 0.458-8.5958 0.509-12.393 0 3.288-7.614-2.1529-13.989-6.8344-16.425l6.0985-0.289c3.5464 2.31 3.6247 3.812 5.0495 6.378 4.658 0 12.745 0.142 21.396 0.206l0.66544 1.376zm-249.93-13.18c22.672-1.999 45.496-3.505 71.24-4.544-0.21685-6.198-0.0227-9.152-0.43136-14.14-0.1871-0.09-21.082 2.741-44.538 4.68-27.67 2.478-51.989 5.182-60.933 5.746-13.613 0.187-20.842 1.595-27.133 5.444-4.788 2.91-8.6365 6.009-8.6365 6.948s6.5713 1.033 14.646 0c7.9805-0.939 30.625-3.289 55.787-4.134zm-72.848-8.565c-2.383-2.815-1.5062-3.656-6.0186-4.557-3.3201-0.663-8.2976-0.511-11.018 1.488-4.5062 4.037-6.3193 11.513-2.282 16.114 3.4454 3.65 10.006 4.913 15.146 1.533 9.3967-7.738 5.9858-12.714 4.1727-14.578zm263.92-1.099c-3.9214-7.333-2.3408-6.594-1.3191-17.943-4.1883 0.7-17.494 2.061-23.824 2.889 0.6396 3.842 0.0869 11.158 0.38909 17.282 9.6088-0.863 18.257-0.953 24.754-2.228zm-199.93-8.192c25.072-2.109 51.894-5.433 78.406-8.237 0.55583-0.868 0.77973-2.449 1.4076-4.389 18.217-2.567 72.904-7.809 93.112-10.326 1.2189 1.28 2.0675 1.727 2.0949 5.026 6.9401-0.901 18.804-0.883 26.26-1.796 10.155-4.935 44.015-3.764 47.733-3.764-4.2509-2.574-10.71-7.122-14.718-8.53-4.7911 0.455-29.182 0.469-96.297 7.204-24.13 2.91-62.908 6.821-84.69 9.262-21.876 2.441-61.875 5.096-87.412 8.287-0.76721 0.1-25.215 1.852-49.94 4.869 12.752-9.705 38.929-32.816 45.069-37.305 19.028-17.824 40.825-37.844 60.824-54.933 22.553-19.45 44.952-40.391 67.518-58.395 2.4864 5.249 12.922 15.025 19.047 20.295l-16.424 15.857 0.0313-28.411c-1.4483 0.278-3.007-2.017-3.901-1.044 0.41413 4.121 0.0329 28.687 0.1597 34.049l-19.406 17.955c0.0227-13.149 0.0744-29.017-0.008-34.053-2.3956 1.155-2.8723 2.336-3.908 3.165-0.34524 2.264-0.68891 23.527-0.4157 34.288l-16.417 13.742 0.0932-35.796c-0.86271 0.33-2.4762 1.738-3.3812 1.986-0.29357 9.054-0.41492 27.88-0.41492 36.331-2.935 2.848-9.6652 8.818-14.608 13.558-0.10256-5.202-0.0971-28.665 0.0368-31.652-0.91986 0.511-2.1169 1.496-3.6434 3.149 0.10021 7.797 0.1644 42.605 0.0673 52.731l0.55818 14.333-3.656 0.188c-0.22312-7.449-0.45563-29.964-1.2784-32.205-3.3405 3.107-17.534 14.432-21.195 17.342 0.0728-2.48-0.38595-6.014-0.40865-8.671-0.018-3.126-0.4251-18.658-0.89012-22.111-1.4092 0.346-2.3008 1.219-3.2262 1.762 0.69048 6.79 0.91595 24.316 0.71632 30.954l-19.86 13.494 0.16127-25.844c-1.2275 0.222-2.3267 0.974-3.1181 1.465-0.46972 6.976-0.42823 23.611-0.15501 25.609-2.9483 1.709-4.7285 2.866-6.6637 4.188 0.10178 0.805-0.0564 2 0.15188 2.528 10.401-1.649 20.043-2.368 30.418-3.743-0.155-3.559 0.1464-12.924-0.09-15.056l2.4238-2.176 0.18162 11.02c0.13622 2.007-0.15031 4.751 0.65761 6.589 14.492-1.366 28.852-3.714 43.391-4.93l0.22155-47.192c0.53861-0.728 2.9436-1.225 3.7217-1.593-0.31863 7.151 0.50025 39.145 0.21607 48.329 5.2663-0.73 12.635-1.303 16.559-2.067l0.55505-25.47c-0.93866-9.107-0.35464-28.62-0.39926-32.458l3.7068-4.02c0.0337 13.758-0.0423 24.895 0.73276 38.026l-0.43058 23.817c4.0247-0.256 15.665-1.077 20.109-2.236 0.14326-4.805 0.46815-59.637-0.94648-78.963l4.186-3.466c0.274 16.57 1.1579 64.403 1.7051 82.286 6.915 0.191 18.203-2.286 21.021-2.286 0.25443-13.985-0.34055-86.793-0.69753-96.257 0.55427-1.689 2.6899-1.664 3.6434-2.196 0.38517 28.552 0.29592 71.12 1.3199 98.004l24.079-3.168c1.0076-5.506-0.49946-31.795-0.0344-39.572l3.6528 0.416 0.67169 39.241 14.766-1.036c11.73-1.065 24.219-2.708 36.15-3.525 0.52921-4.609-0.57854-23.634-0.67248-29.334l4.2016 2.636 0.27322 26.18 9.6034-0.983c8.3563-1.128 13.689-2.167 24.579 2.996 7.8913 3.662 14.929 7.793 15.681 9.014 0.84549 1.313 4.0396 2.347 7.2336 2.252 5.7227 0 5.7227-0.09-0.75155-5.163-3.6638-2.817-15.007-8.622-25.02-14.038-11.359-4.976-17.193-10.029-20.8-12.533-0.75077-2.628-1.1657-4.376-4.2635-6.066-0.76877-0.643-2.1709-1.496-3.5456-2.332v-0.183c-7.0974-4.614-13.941-10.682-21.295-14.515l-6.7115-4.839-0.17223 14.134c0.45172 6.149 0.41101 24.919 0.73041 32.273l-3.7546 0.294 0.0501-24.869v-24.785l-12.611-9.737c-5.581-4.05-11.751-7.428-14.882-10.694-0.15501 5.179-1.0334 13.093-0.46972 24.359l-2.8989-2.768c-0.21137-11.825 0.29122-21.697-0.61376-26.069-7.8897-5.645-25.886-21.04-28.863-23.803-5.646-4.487-18.529-17.835-24.789-22.397-1.0013 0.865-3.3546 4.666-9.9087 9.761-32.869 29.369-98.732 87.063-118.73 104.8-15.061 12.389-36.44 31.2-50.634 42.078-0.029 1.094-0.007 2.619-0.18006 3.706 5.408-0.241 21.322-4.792 29.661 3.548 21.728-1.528 51.577-4.635 60.656-5.398zm133.71-244.18c-2.1591-2.441-5.2577-8.825-7.0411-14.365-2.441-7.605-4.6001-9.857-9.2949-9.857-3.3796 0-7.6047-1.784-9.3889-4.038-1.7834-2.159-4.9759-3.943-6.9471-3.943-1.972 0-3.6614-1.126-3.6614-2.534 0-1.409-3.0046 0.281-6.5721 3.661-6.7608 6.196-9.0131 14.74-3.8501 14.74 1.5023 0 2.066-1.127 1.1273-2.629-0.84549-1.502-0.46972-2.628 0.93865-2.628 1.3144 0 5.6335 6.571 9.5768 14.552 3.9433 7.98 8.2616 14.552 9.6699 14.552 1.5962 0 1.6894-1.784 0.1871-4.6-2.5341-4.975-6.4774-27.133-4.7872-27.133 0.46893 0 3.5667 7.134 6.7592 15.867 6.5721 17.932 11.83 21.218 9.5768 5.914-1.1265-7.605-0.93865-8.543 1.0326-4.224 1.3136 3.192 3.8493 6.572 5.4448 7.604 1.691 0.94 4.413 4.976 6.0092 8.825 2.9107 7.042 2.9107 7.042 4.0372 0.846 0.56366-3.38-0.65682-8.169-2.8167-10.61zm-36.19 284.43c0-2.621-0.0485-10.344-0.11586-14.635l26.133-0.738-0.19493 16.46c-5.1716-0.118-16.218-0.663-25.822-1.087zm-0.18241-18.735c-0.13856-8.366-0.3061-17.467-0.3061-22.345l26.263-2.241 0.20511 23.702-26.162 0.884zm34.668-25.691 26.368-2.376 0.0258 26.006-26.132 0.882-0.26226-24.512zm26.41 28.068 0.10021 16.108-26.079 1.155-0.12291-16.526 26.101-0.737zm-325.23-44.067c-0.43918-2.175 1.0576-5.065 2.9608-6.528-3.9433-9.577-2.6821-30.555 1.0733-24.64 1.5015 2.442 4.0372 4.137 10.046 0.382 4.0098-3.58 6.6927-3.58 12.795 2.711 4.038 4.131 9.2683 4.613 12.461 3.579 9.5768-3.004 3.2364 10.207-10.377 17.999-1.5681 4.615 1.9501 5.997 2.1036 10.814-4.3425 9.31-23.89 15.044-23.238 2.118-4.2846-0.41-6.3866-3.002-7.8247-6.435zm73.728-51.538-3.4704-4.901c-1.1469-4.001-1.3465-10.658 0.52921-14.718 0.53626-12.293 1.9501-15.435 7.7707-12.242 2.7228 1.502 6.6152 4.242 10.652 5.089 7.6047 1.992 9.7192 5.977 5.9646 9.132 0.51748 5.385 4.3997 10.436 0.32567 11.763-5.5388 1.784-7.0129 4.654-8.4212 5.217-4.456 5.139-11.997 2.789-13.35 0.66zm366.97-104.52 2.2546 5.196c-1.0334-3.286-3.4681-7.886-5.5348-10.233-4.2274-4.882-2.2546-12.957 3.1862-12.957 1.9728 0 6.5995-12.434 11.532-14.511 0.47755 14.326 0.50103 19.873 0.68892 37.994-4.4623 2.334-8.5645 6.09-12.127-5.489zm-6.6622-48.695c0.0939-3.098 0.75155-3.755 1.597-1.596 0.75155 1.877 0.6576 4.225-0.28183 5.07-0.84549 0.845-1.5031-0.657-1.3152-3.474zm-206.93-83.465c0-1.596-2.2539-2.065-5.2585-1.127-4.6948 1.502-5.3516 0.47-5.3516-9.107 0-7.042 1.2205-10.796 3.4743-10.796 1.8773 0 6.0085-4.413 9.2002-9.859 6.1971-10.702 7.5108-7.793 3.2865 7.229-2.1591 7.981-2.066 8.638 1.0318 4.695 5.0714-6.759 6.854-5.727 6.854 3.849 0 9.482 4.3198 7.323 5.7274-3.004 0.46971-3.568 2.4417-6.948 4.2259-7.511 2.3462-0.752 2.816 1.314 1.5955 7.698-3.4743 18.215-5.4456 20.749-15.397 20.749-5.1645 0-9.3881-1.22-9.3881-2.816z"/>
  <path id="path2995" style="fill:#217867" inkscape:connector-curvature="0" d="m623.18 480.69c-0.95509-5.03-3.3037-8.193-7.5155-10.777 0.19571-2.448-0.0783-3.641 0.17223-5.033 9.4178 0.867 100.64 4.776 111.39 5.549-1.1665-0.935-1.3387-3.057-1.5109-4.585-32.246-1.865-108.06-4.495-116.31-5.492 0.24269-4.135-1.0334-7.175-1.3465-10.482l3.2724-1.639 4.0552 2.686 13.442-0.469-9.6605-8.894h4.5876l12.025 10.31h13.747l-8.0165-7.446h5.1512l11.312 9.341 11.265 0.398 2.3877 0.956 6.2472-0.1-7.1554-7.16 4.0083-1.145 10.209 8.593 7.3746-0.321 4.1335 1.77 10.357 0.84-13.747-12.601 2.8653-1.145 19.188 13.172 18.765 1.421h0.1253l-16.886-11.733h4.0083l18.335 11.455 1.0804 0.458 2.466 0.07 3.2958 1.237 14.013 0.411-0.1644-0.269-12.675-9.923 3.4368-0.574 12.385 8.774 16.675 0.269-10.162-8.469 2.8653-1.146 11.892 9.689h0.063l3.2958 2.472h11.602l3.5072-0.134-9.7388-8.019 2.8652-1.719 10.631 7.86 7.9148 1.188 3.0844 2.054 3.7265 0.601 4.9163 0.289-7.9382-7.41 2.8653-1.145 15.916 10.976 11.986 0.307-11.868-12.428 3.4368-1.146 13.176 11.455 15.751 0.859-6.0124-5.441h3.4367l11.453 8.591 18.327 1.146-7.445-6.873 3.4368-1.145 11.453 9.165 0.548 0.02c-0.7907-2.039 5.3626-0.809 5.3626-0.809l5.5191 1.228 5.942 0.228 4.4936-0.214-7.8286-6.755 3.7186-1.145 10.083 8.571 4.8538 0.56 10.201 0.6-5.6601-4.577 3.4368-0.572 6.0358 3.69v-0.274c0.1879-0.03 0.368-0.05 0.5559-0.08l10.162 0.39 2.881 2.885 12.682 0.806-7.6877-5.697 3.4368-1.146 10.655 7.249 6.8736 0.437 0.3679-0.623 23.337 1.666-1.0256-3.076 17.012 2.042-4.0082-4.345h3.3663l5.5974 4.939 3.6638 0.44 15.313 1.367-8.3061-6.746 3.3663 0.561 11.626 6.782 6.7091 0.599 2.74-2.28-3.6873-3.418 3.3663-0.561 4.8068 4 14.992 1.097-5.7697-4.536 3.93-0.561 11.226 6.818 18.123 0.979-0.6811-2.025-6.7952-4.65 3.3663-1.122 7.4763 5.199 19.188 2.086 11.273 0.512 24.605 0.513-1.0256-4.101-4.8615-0.496c-2.3956-1.489-13.238-1.612-23.392-3.319-10.608-1.878-24.034-1.744-29.85-3.246-5.8245-1.597-16.902-2.818-24.692-2.818-7.7034-0.09-16.526 0.225-19.532-1.371-1.2761-0.681-5.8089-0.59-12.299-0.35l-9.0421-2.671-0.4697-2.346-11.539-1.484c-0.9003-0.172-1.7771-0.338-2.6382-0.497l-2.9592-0.876-2.0276-0.04c-3.5699-0.647-6.8971-1.245-10.287-1.919l-1.9728-2.531-27.753-5.305-2.0354-4.489-29.381-5.713-0.822-3.673-22.445-7.754-1.2213-4.49-20.409-9.794-0.4071-4.489-24.895-10.202v-3.673l-25.709-11.427-0.4071-3.265-22.445-15.507-0.9551 0.336c-4.8929-2.773-9.5822-4.102-16.15-4.952-5.2374-0.731-9.5588-0.868-11.954-0.49l-18.664-0.747-4.1961-2.799-28.927-2.332-4.658-4.198-39.182-1.399-3.2724-4.665-38.243-2.799-2.3329-2.799-26.124-2.799-16.792-2.798-3.7342-3.266-12.847-2.039c0.70458-3.427 0.1096-6.449 0.1096-9.972 3.2332-0.01 10.365-1.932 11.876-4.874 1.0334-1.408 2.9984 0.47 4.4075 4.132 2.7244 7.323 10.984 15.397 10.984 10.89 0-1.595-1.1195-3.567-2.6226-4.506s-2.6304-3.943-2.6304-6.759c0-2.818 1.1273-5.165 2.6304-5.165s2.8105-3.286 3.0062-7.323c0.36794-7.136 0.36794-7.136 1.5892-0.657 1.691 9.483 5.1669 12.111 7.2336 5.632 1.9728-6.289 6.7561-7.604 6.7561-1.877 0 1.972 1.597 4.318 3.6638 5.07 2.0668 0.845 5.1669 5.727 6.8579 10.891 4.2196 12.957 7.7895 11.924 6.1924-1.784-1.2213-10.797-1.1273-10.984 2.4425-4.6 2.0668 3.567 5.253 6.195 7.1319 5.82s5.073 0.658 7.1397 2.347c6.5682 5.446 6.944 0.47 0.6576-8.074-3.382-4.6-8.8307-8.918-12.017-9.764-3.288-0.845-7.4215-3.191-9.1125-5.163-1.691-2.066-5.253-3.756-7.8834-3.756-2.7244 0-6.2003-2.346-7.7973-5.257-2.8105-5.446-13.238-7.512-13.238-2.723 0 1.503-1.6832 2.723-3.7499 2.723-2.0668 0-4.5093 3.567-5.5427 7.886-1.7849 8.261-4.8772 10.14-8.1653 4.882-1.3152-2.065-4.5876 0.757-9.5118 2.782 0.0626-13.706 0.20354-31.619 0.18789-38.054 3.1001-3.23 5.5662-5.757 5.6601 1.285l0.18789 9.294 3.6638-7.979c2.4425-5.446 3.6638-6.478 3.8517-3.193 0.094 2.911 1.4013 4.038 3.1862 3.005 1.8789-1.221 2.4425-6.572 1.4092-14.834-1.2213-10.797-0.93943-12.393 2.0668-9.389 1.8789 1.878 4.5093 8.825 5.6366 15.303l2.1529 11.736 1.5031-9.295 1.5031-9.2 6.3882 10.515 6.4743 10.609 1.7849-7.886 1.691-7.98 3.1001 7.416c1.691 4.131 3.0062 9.107 3.0062 10.985s2.0589 5.069 4.5015 7.135c3.9456 3.193 4.2275 2.911 2.8183-2.722-1.4092-5.446-0.46971-5.069 7.1319 3.286 8.6428 9.483 14.272 12.862 10.428 6.383-1.0334-1.877-5.9184-8.261-10.71-14.175-4.8772-6.01-8.8229-12.205-8.8229-13.802 0-1.596-6.0124-5.633-13.238-9.013-12.675-5.821-16.432-11.83-6.85-10.985 2.9984 0.282 4.0317-0.939 2.9984-3.661-1.0334-2.723-0.28183-3.475 2.4425-2.441 4.6972 1.784 5.1669-1.784 1.2213-9.201-1.597-2.91-2.3486-6.666-1.7849-8.451 0.56366-1.69 3.0062 0.377 5.3548 4.789 3.4759 6.291 4.3214 6.854 4.3214 2.629 0.0861-8.074-5.9184-16.994-14.084-21.313-6.8579-3.474-7.3276-3.474-5.3548 0.846 1.1273 2.534 2.5365 10.234 3.1941 17.181 0.93944 11.173 0.46972 12.581-4.2275 12.581-3.0062 0-7.2258 0.751-9.4805 1.595-2.9122 1.128-5.073-0.751-7.0458-5.914-2.7165-7.135-3.0923-7.323-6.4743-2.723-1.691 2.347-2.6069 3.215-3.6168 2.862-1.0177-0.352-1.6753-2.603-4.2196-4.686-0.11743-5.657-0.75155-21.965-1.0334-25.838 4.7207 6.535 10.091 6.631 10.467-0.41 0.28183-4.695 0.75155-4.225 2.1607 1.972 1.0256 4.413 3.2802 7.698 4.9712 7.323 1.7849-0.376 3.1941 1.69 3.1941 4.6 0 2.911 1.1273 5.352 2.6304 5.352s2.6226-1.784 2.6226-3.943c0-2.441 1.597-3.287 4.3214-2.254 6.4821 2.536 0.93943-6.478-13.52-22.063-6.5682-7.042-12.017-13.707-12.017-14.834 0-3.663 8.1731-1.972 9.6684 1.971 2.3486 6.102 6.7639 1.597 4.6972-4.788-1.691-5.258-1.4092-5.351 2.8183-1.877 2.5365 2.159 8.8229 5.257 13.896 7.042l9.1986 3.191-5.6366-6.102c-3.1862-3.287-6.6622-9.482-7.7895-13.614-1.1273-4.224-3.7577-7.699-5.8167-7.793-12.862-0.563-25.263-12.486-22.82-21.875 1.1273-4.131 1.2213-4.131 1.5031 0.09 0.37577 5.351 4.6032 6.29 6.2942 1.408 0.75155-2.348 2.3486-1.971 5.7227 1.314 2.5365 2.535 5.1669 4.601 5.8245 4.601 2.6304 0-5.3548-12.112-10.326-15.586-4.3214-3.097-4.8851-5.632-3.4759-15.773 1.2213-9.387 0.93944-11.454-1.5031-9.012-1.7849 1.784-3.6168 2.725-4.0865 8.077-0.18789 3.61-1.691 6.414-3.6794 9.903 0-6.572-1.143-15.902-1.2761-21.275 3.7186-5.934 8.5724-12.749 14.679-15.859 9.1986-4.788 9.5744-3.661 4.1257 11.643-4.9712 14.177-0.93943 31.639 9.7623 42.06 4.979 4.882 7.3276 9.953 7.3276 15.961 0.0939 9.765 12.581 29.48 23 36.241 6.576 4.318 9.1047 18.589 2.9122 16.524-3.1001-1.033-9.9502 3.849-9.9502 7.229 0 0.846 2.0668 4.694 4.5954 8.543 2.4425 3.757 4.7911 8.544 5.073 10.61 0.28183 1.972 3.0062 8.356 6.0046 14.271 6.8579 13.145 6.9518 16.524 0.46972 14.458-3.562-1.126-4.8772-0.469-4.5015 2.348 0.56366 3.755 14.178 22.532 27.51 37.837 7.4137 8.636 7.4137 9.67-0.2818 7.791-3.476-0.939-6.9519-0.845-7.8913 0-2.6304 2.629 9.5744 21.688 16.056 25.162 0.6968 0.379 1.3622 0.811 1.9885 1.276l94.75 14.61c1.1665-1.768 1.8163-3.848 1.5579-5.371-0.7515-5.352 5.4488-24.129 8.0792-24.129 1.0334 0 1.7849-12.111 1.691-26.852-0.094-14.739 1.0333-28.259 2.5364-30.044 3.656-4.412 35.581-14.645 45.719-14.645 4.6032 0 10.044 1.784 12.205 3.943 2.2547 2.253 6.1925 4.038 8.9168 4.038 10.052 0 15.775 6.946 15.963 19.434 0.094 6.479 1.5971 14.364 3.382 17.651 2.1607 4.036 2.2546 6.665 0.3758 8.636-3.382 3.382 2.7243 16.431 8.7289 18.777 2.2546 0.847 4.1335 4.508 4.1335 8.075 0 3.662 0.9394 7.23 2.2546 7.981 1.2135 0.752 2.2468 6.76 2.3408 13.519 0.094 6.666 1.597 13.802 3.288 15.773 1.691 2.066 2.9123 8.92 2.6304 15.21-0.1879 6.197-0.2818 18.684-0.1879 27.603l-0.1252 5.632 10.756 6.231 0.3993 2.011 17.246 5.389c-0.2818 1.467 0.7438 2.403 2.6148 3.151l0.1331 1.254 21.732 4.404c3.2253 0.869 6.3959 1.77 8.6976 2.556l0.9942 3.651 29.796 6.121 1.6284 2.857 24.214 2.387c5.6601 1.411 10.522 3.106 11.978 4.288 1.9728 1.596 14.46 1.748 27.792 2.311 13.426 0.657 25.537 2.066 26.946 3.098 1.5031 1.127 15.211 0.712 30.516 2.496 15.297 1.784 29.005 4.225 30.508 5.446 1.4092 1.126 7.4216 2.534 13.238 3.003 9.2926 0.751 10.608 1.69 11.359 8.075l0.8455 7.323c-107.64-4.662-136.65-7.38-220.42-11.206 0.2035 1.079-0.7829 1.89 0.8846 3.521 30.524 2.244 25.576 0.752 51.802 2.538 0.01 6.046 0.3367 10.16-0.3836 17.087-24.425-0.142-64.281-1.571-87.305-2.242-1.3231-0.11 0.024-11.255-0.7124-14.695v-4.467c15.72 0.905 27.823 1.619 32.951 1.953 0.1409-1.798-0.4228-1.236-0.5402-3.395-1.3152-1.316-103.74-5.683-166.75-9.627l-83.344-4.466c0 0.322 0.3288 2.06 0.9786 4.098 8.1966 1.637 13.309 1.314 24.527 1.893l0.4227 23.095c-45.704 0.127-87.47-1.141-132.73-3.347 2.1764-3.259 1.0256-5.946 0.61846-10.841zm294 18.354c-5.1669 0.754-10.858-0.247-18.186-0.229l-0.5949-7.077c-31.839-0.477-50.581-1.11-78.654-1.925-0.368 2.039-0.071 6.032-0.071 7.534-9.5822-0.988-21.858-0.1-26.68-1.451-0.2036-4.291-1.0569-20.282-0.8377-22.952 0.3053-0.249 69.675 3.517 125.12 6.656 0 5.972-0.1331 7.068-0.1018 19.444zm-30.704-120.08c0.7515-2.16-1.8711-3.38-7.6956-3.474-8.7289-0.188-8.8228-0.188-2.2546-3.098 6.576-2.911 6.576-2.911-3.2802-5.633-12.487-3.287-12.87-7.042-0.8455-7.042 10.796 0 12.862-2.253 7.9774-8.919-3.2881-4.507-5.073-4.695-20.284-2.066-9.4805 1.691-21.31 2.066-27.314 0.845-10.146-1.877-10.334-2.159-4.6032-5.257 3.288-1.879 5.9184-5.071 5.9184-7.23 0-2.065 1.8711-3.849 4.0318-3.849 2.4425 0 3.9456 2.535 3.9456 6.666 0 4.224 1.5031 6.572 4.1335 6.572 7.3198 0 14.452-5.258 14.452-10.703 0-2.817 1.1273-5.164 2.6304-5.164 1.4091 0 2.6304 1.69 2.6304 3.85 0 2.159 2.4425 5.163 5.3548 6.759 4.8772 2.629 5.253 1.972 5.253-8.168v-10.984l-8.635 1.689c-13.99 2.911-39.057 3.568-39.057 1.127 0-1.221 2.2546-4.506 5.0729-7.324 3.656-3.661 5.4409-4.13 6.3804-1.782 0.7515 1.971 6.67 3.379 14.553 3.566 14.835 0.376 20.558-3.661 17.748-12.486-1.9728-6.291-11.367-7.323-13.708-1.314-1.0334 2.721-3.2881 3.473-7.1397 2.159-3.1002-1.033-9.0108-1.597-13.144-1.315-11.923 0.751-5.7227-4.225 9.0186-7.418 18.491-3.941 23.658-7.134 23.658-14.833 0-9.295-9.3004-8.544-18.593 1.408-8.2592 8.825-10.608 9.764-10.608 4.132 0-2.161-1.9728-4.977-4.4153-6.291-3.9378-2.253-3.75-2.816 1.4091-5.634 3.1941-1.689 6.9518-2.347 8.4549-1.408 3.3742 2.067 21.028-3.662 21.028-6.853 0-3.286-7.0457-3.193-13.332 0.282-3.382 1.784-8.1653 1.784-13.802 0.187l-8.635-2.441 10.044-0.282c5.8166-0.09 10.608-1.783 11.359-3.849 0.9394-2.16 3.9456-3.098 8.1652-2.254 5.5427 1.033 6.5761 0.376 5.7306-3.661-1.1273-5.821-9.2926-5.633-21.779 0.471-4.2275 2.064-9.7702 3.754-12.205 3.754-6.1063 0-11.923 6.854-7.8912 9.295 2.0667 1.314 2.0667 2.723 0 5.258-1.5971 1.971-1.8789 4.131-0.6576 4.976 2.7243 1.689 2.1607 20.843-0.6576 25.537-1.1273 1.783-0.3758 4.319 1.597 5.821 2.8183 1.972 2.9123 2.816 0.3758 3.849-1.8789 0.751-3.288 3.005-3.288 5.07 0 2.066-1.3152 3.756-2.9984 3.756-1.597 0-2.1607 1.972-1.2213 4.506 0.9395 2.441 0.1879 5.351-1.6909 6.479-1.8789 1.125-3.476 5.069-3.5699 8.731-0.094 6.948-0.094 6.853 23.282 10.702 6.3882 1.034 13.52 5.259 20.66 12.113 16.612 15.959 25.631 19.528 28.441 11.172zm-271.14-206.88c-0.21137-5.667-0.58714-21.816-0.75937-25.704 3.0845-0.903 4.8851 5.851 4.8851 8.01 0 2.16 1.8789 3.944 4.0396 3.944 5.1591 0 5.9732 5.122 0.71241 10.38-1.1743 1.807-4.384 3.226-8.8777 3.37z"/>
  <path id="path2997" style="fill:#217867" inkscape:connector-curvature="0" d="m665.18 513.89 38.595 0.47 0.031 30.806c-11.336-0.22-21.889-0.353-32.724 0.212 0.85332 1.32 0.13308 3.373 0.6028 5.626l31.839-0.549 0.2819 28.022-36.638 1.852c-0.43057-22.166-0.90812-44.287-1.9885-66.439z"/>
  <path id="path2999" style="fill:#217867" inkscape:connector-curvature="0" d="m667.13 586.5c11.97 0.463 24.363-1.628 36.466-1.628l0.3445 29.867c-11.782 0.583-23.58 1.219-35.37 1.703-0.75938-7.317-0.15657-25.096-1.4405-29.942z"/>
  <path id="path3001" style="fill:#217867" inkscape:connector-curvature="0" d="m847.24 570.61 0.1409-75.907h12.174c0.2661 60.608-0.3915 124.81-0.9708 185.78l-11.712 1.893c-0.3836-37.517 1.4404-74.624 0.3679-111.76z"/>
  <path id="path3003" style="fill:#217867" inkscape:connector-curvature="0" d="m754.7 620.99c-5.1513 0.346-24.081 2.55-74.129 6.477-14.154 0.903-37.39 3.872-49.477 4.405-1.9728-2.849-3.9535-8.515-11.892-12.052 8.2984-5.032 12.26-11.363 11.618-16.635 6.2864-0.59 19.133-1.075 27.204-2.111-1.37-2.072-2.0902-2.429-4.6502-4.154-7.3276 0.608-17.646 0.985-25.146 1.298-1.2839-3.773-3.8125-7.248-11.5-11.477 0.92378-1.797 1.6284-2.432 0.74372-5.722 7.5938-3.666 11.868-10.135 12.244-15.955 4.11-0.557 14.24-0.459 25.607-1.09-0.97857-1.047-1.8945-2.034-2.8966-2.678-8.8855-0.681-15.955 0-22.132 0.06 0.14874-5.316-5.4487-13.551-14.436-15.293 0.24269-2.805-0.008-5.292-0.23486-6.728 6.623-1.56 8.3218-6.804 9.3552-9.166 8.3766-0.346 23.541 0.473 30.618 0.259-1.19-0.984-0.75155-3.272-2.0433-4.748-7.766-0.172-17.928 0.465-27.228-0.06-0.0156-8.196-4.1178-15.303-9.8562-16.625l-0.50886-10.81 2.9514-2.764 136.09 3.784 0.1879 8.65-96.785-0.793 1.3152 62.884c0.65761 32.673 2.3173 49.556 2.0589 54.308 17.192-2.032 34.282-3.24 51.598-3.648 19.728-1.841 27.792-2.129 34.36-2.664-0.5636-2.348 0.3523-5.763-0.8846-8.338-9.5431 1.87-23.689 3.835-34.853 3.441l-0.5166-28.177 37.037-1.044-0.3523-7.715-36.685 2.286v-28.258l35.237-0.296-0.227-4.961c-11.657 0-23.314-0.07-34.97-0.08 0-11.457-0.039-18.834-0.039-30.292h43.269c0 38.177 0.024 68.411-0.055 106.48z"/>
  <path id="path3005" style="fill:#217867" inkscape:connector-curvature="0" d="m826.71 494.09h17.818l-0.3523 71.985c0.016 39.415 0.078 78.39-0.4384 117.4-5.3234 0.816-10.647 1.939-15.939 2.808-0.9707-58.647-0.3757-133.53-1.0881-192.2z"/>
  <path id="path3007" style="fill:#217867" inkscape:connector-curvature="0" d="m792.45 656.31c6.3803-0.38 18.155-1.763 22.218-2.535 0.548-0.625 0.9003-2.196 0.5324-3.197-3.836 0.427-14.506 1.831-22.351 2.057-0.01-4.473-0.2114-26.093-0.01-30.571 4.8694-0.539 14.898-0.612 19.642-1.086-0.047-1.182-0.5246-1.581-0.7203-2.759-7.1005-0.388-13.465-0.262-19.078 0.262 0.078-4.281-0.055-23.295 0.016-25.685 3.656-0.09 20.668-1.506 24.144-1.6 0.024-1.428-0.8142-3.261-0.8142-4.356-5.3078 0.225-19.07 0.432-23.392 0.432-0.1644-7.754-0.6341-16.071-0.6341-26.116 6.529-0.774 18.217-0.82 22.484-1.229 0.6419-1.223 0.078-3.685 0.3131-4.685-7.3197 0.07-15.501 0.02-22.358 0.137 0.1096-7.978-0.031-17.523-0.031-26.536 2.0432 0.338 18.194-0.08 20.331 0.325-0.071-1.937-0.1018-4.324-0.5558-5.258-5.4879-0.383-17.301 0.123-20.01 0.143-0.3366-2.916 0.031-22.131 0.2818-24.417 5.4801-0.234 18.938 0.831 27.111 0.589l0.454 77.14c0.1018 3.59 0.4541 29.902 0.7907 55.316 0.2036 15.288-0.6811 36.943-0.4697 55.115-9.637 2.043-18.616 4.427-27.706 6.357 0.3914-5.154 0-2.338 0-5.291 5.3078-1.022 16.182-3.342 20.84-3.342-0.2036-3.299-0.1331-1.598 0.039-4.258-6.3725 0.729-12.354 1.961-20.621 2.7l-0.4462-27.652z"/>
  <path id="path3009" style="fill:#217867" inkscape:connector-curvature="0" d="m1143 664.64c-4.2744-0.485-10.952-1.024-13.684-1.279-0.595-5.188-0.689-12.801-0.3523-14.827 0.9785-51.288-0.063-106-0.01-158.9 1.2135-0.183 2.0198-0.2 3.2646 0.185 0.4462 7.953 0.1957 30.921 0.01 89.695-0.1174 40.136-1.3543 71.156-0.9394 80.816 3.8438 0.94 7.3197 1.242 11.398 1.648 0.4227-6.853 0.1565-42.747 0.1565-80.865l0.2036-90.796 10.756 0.256-0.1409 90.352 0.3679 81.175c-3.7969 0.983-3.9691 0.736-11.03 2.536z"/>
  <path id="path3011" style="fill:#217867" inkscape:connector-curvature="0" d="m1060.2 685c-3.2802 0.829-8.9951 2.682-14.24 4.589-3.6325-0.817-8.4393-0.494-13.888-1.746-0.094-4.131-0.1801-26.536-0.4228-31.49 2.6304-3.76 1.8554-2.708 3.1236-3.592 0.9238 4.035-0.5793 28.037 0.1488 32.571 1.8319 0.381 7.6486 0.684 11.5 0.798 0.2427-7.631-0.4384-37.493-0.454-78.299 0.3758-39.902 1.5109-113.77 0.8533-121.47 5.2374-0.844 9.1752-0.173 13.638-0.285 0.6654 58.779-0.2584 160.77-0.2584 198.93z"/>
  <path id="path3013" style="fill:#217867" inkscape:connector-curvature="0" d="m769.52 758.4c-3.5933-1.111-12.174-1.752-19.094-2.783l-1.0334-28.318v-24.162c-14.428 2.703-34.305 6.529-49.853 9.328-41.03 7.418-52.1 9.602-66.105 12.264-1.3778-2.419-2.8888-2.75-3.241-6.893 1.3152-0.189 39.261-6.349 56.82-9.636 5.1904-0.98 44.482-8.585 62.433-11.17 0.689-3.628 0.2584-1.524-0.7437-5.485-33.334 4.706-87.508 16.655-123.06 21.489-0.58714 0-4.7207-3.971-8.588-5.927-0.90812-2.804 0.1096-5.626 0.0548-7.445 9.4648-5.132 14.405-13.371 12.549-22.693 9.9502-1.382 35.252-3.684 49.743-6.628 19.869-3.601 51.458-5.183 70.176-8.851-0.18-1.244-0.4149-3.611-0.5167-6.004-9.7701 1.701-25.2 3.798-63.647 8.765-28.3 3.656-50.87 6.909-58.926 8.102 0-0.423-5.0416-4.186-8.7602-6.121-0.4932-2.015-0.1096-5.563-0.32097-8.127 6.8266-3.69 14.436-10.599 13.88-20.636 41.312-3.226 82.216-6.939 123.36-11.773l-0.6968 59.691c-0.094 33.892-0.501 64.38 0.6263 65.506 1.1273 1.033 11.242 1.404 14.334 2.344 0.7516-9.627-0.4697-41.316 0-48.658-0.4619-28.824-1.5892-84.31-2.6226-123.27l0.047-108.63h21.153c0 40.138-1.965 143.78-0.1331 183.88h0.01v33.255l0.016-0.02c0.047 6.895-0.071-13.744 0.407 2.584 0.016 15.633-0.548 52.898 0.2662 62.076-5.9497 1.093-13.129 3.453-18.538 3.951z"/>
  <path id="path3015" style="fill:#217867" inkscape:connector-curvature="0" d="m929.65 718.13-15.642-1.628v-44.459l2.8574-0.611-0.8142 43.234 13.019 1.592c0.1644-15.024 0.3914-57.444 0.3914-107.16l-0.4071-127.24h13.802l0.8768 96.823c0.9394 37.461 1.8162 77.254 1.4404 95.749 0.5089 13.802-0.078 33.318 0.2036 39.729-2.9201 0.534-10.882 3.665-15.728 3.977z"/>
  <path id="path3017" style="fill:#217867" inkscape:connector-curvature="0" d="m768.54 855.47-18.303-8.84c-0.07-3.191-0.2818-18.216-0.2427-32.436l2.7792 3.014 1.6284 26.934 15.101 6.938-0.4071-29.383-12.244-4.489-4.4858-7.755-2.3016-4.835c0.078-6.285 0.2427-11.722 0.5245-14.937-9.5744 7.23-2.5678 20.665-4.8616 28.791-14.553 1.22-41.868-1.792-50.041-4.702-6.0985-2.067-14.553-3.849-18.585-3.944-4.0396 0-13.05-3.005-19.814-6.571-7.0379-3.756-17.106-6.871-22.828-6.871l-20.339-1.02c-4.0317-13.466-1.1352-26.488-2.4347-37.48 33.154 4.923 73.769 12.789 106.07 19.082 25.631 4.976 46.338 8.81 48.029 8.81 0.1565-3.673 0.3366-6.648 0.3366-9.278-6.122-1.996-12.948-1.16-27.995-4.79-45.101-6.686-103.06-16.994-122.25-20.374-0.78286-1.153-0.0548-2.842-0.35229-4.975 2.9984-0.09 28.997 4.024 47.872 6.76 18.867 3.755 37.93 7.417 42.337 8.074 4.3214 0.751 19.814 3.099 34.462 5.351 5.4331 0.868 19.65 3.942 31.393 5.775 1.049-0.07 4.0709-0.146 7.3119-0.08l24.496-6.461-0.4149 8.162-14.694 3.975c-0.4462 16.66-0.9942 65.825-0.9942 71.532-4.9085 2.723-12.8 4.265-18.75 6.027z"/>
  <path id="path3019" style="fill:#217867" inkscape:connector-curvature="0" d="m1074.6 634.11c4.6815 0 8.0869 0.961 8.0869 5.641-5.707 1.371-12.502 2.596-16.589 2.857 0-4.68 3.8203-8.498 8.5019-8.498z"/>
  <path id="path3021" style="fill:#217867" inkscape:connector-curvature="0" d="m1074.8 612.63c4.6815 0 8.5019 3.818 8.5019 8.498 0 4.681-3.8204 8.498-8.5019 8.498-2.145 0-3.4211 0.167-5.0886-0.06l-0.1018 4.734c-1.2917 0.355-3.194 0.692-5.0494 1.654v-5.991c0.3992-0.08 0.7907-0.153 1.1743-0.228-0.4071-0.05-0.7985-0.123-1.1743-0.204v-8.215l1.7458-0.231c0.024-4.663 3.8282-8.46 8.494-8.46z"/>
  <path id="path3023" style="fill:#217867" inkscape:connector-curvature="0" d="m1075.7 500.52c4.6815 0 8.5019 3.818 8.5019 8.498 0 4.681-3.8204 8.498-8.5019 8.498-0.822 0-1.6127-0.119-2.3643-0.338l-3.4367-0.09 0.2035 4.657-3.4681 0.04c-0.6889 0.06-1.3778 0.164-2.0354 0.306v-15.031l2.9044 0.14c0.8846-4.522 4.2901-6.674 8.1966-6.674z"/>
  <path id="path3025" style="fill:#217867" inkscape:connector-curvature="0" d="m1083.3 488.34c-0.8925 3.73-4.2588 6.518-8.2592 6.518-0.822 0-1.6205-0.119-2.3721-0.339l-3.4289-0.09 0.2035 4.656-3.4681 0.04c-0.4853 0.04-0.9707 0.107-1.4404 0.19v-12.115l18.765 1.145z"/>
  <path id="path3027" style="fill:#217867" inkscape:connector-curvature="0" d="m1069.9 613.04-3.8048 0.378c-0.501 0.184-1.002 0.38-1.4952 0.591v-14.403l0.321 0.02 1.0646-0.08c-0.016-0.239-0.031-0.48-0.031-0.724 0-4.681 3.8204-8.498 8.5019-8.498s8.4941 3.817 8.4941 8.498-3.609 9.211-8.2905 9.211c-0.6655-0.05-4.0161 0.07-5.026 0.252l0.2662 4.751z"/>
  <path id="path3029" style="fill:#217867" inkscape:connector-curvature="0" d="m1069.9 584.28v5.371l-3.061 0.819c-0.8142 0.149-1.5579 0.403-2.239 0.735v-13.845c1.0412 0.07 1.7693 0.03 1.7693-0.238-0.4071-7.127 3.6168-9.721 8.2983-9.721s8.4941 3.817 8.4941 8.498c0 4.205-3.0767 7.712-7.1006 8.381v0.03h-0.1566c-0.8455 0.124-1.7066 0.121-2.5443-0.01l-3.4602-0.01z"/>
  <path id="path3031" style="fill:#217867" inkscape:connector-curvature="0" d="m1069.9 562.11-0.2036 4.294-3.6951 0.563c-0.4775 0.297-0.9473 0.582-1.4013 0.866v-13.992l2.6069 0.511c0.1644-6.173 3.5229-9.17 7.8052-9.17 4.6815 0 8.5018 3.818 8.5018 8.498 0 4.201-3.0766 7.706-7.0927 8.38l0.01 0.226-6.529-0.176z"/>
  <path id="path3033" style="fill:#217867" inkscape:connector-curvature="0" d="m1069.9 538.68 0.2035 6.368c-1.3857-0.02-3.0923-0.152-4.8146 0.323-0.2349 0.05-0.4619 0.11-0.6889 0.175v-16.761l1.9337 0.05c0.4462-4.614 4.1491-6.855 8.1965-6.855 4.6815 0 8.4941 3.818 8.4941 8.498 0 4.179-3.0375 7.668-7.0223 8.37h-0.024c-0.4697 0.08-0.9551 0.125-1.4483 0.125-0.6576 0-1.2917-0.07-1.9023-0.215l-2.9279-0.08z"/>
  <path id="path3035" style="fill:#217867" inkscape:connector-curvature="0" d="m877.03 495-0.2036 182.23 15.102-2.856 0.6106-179.37h-15.508zm8.588 83.875c1.6753 0 3.0453 1.467 3.0453 3.265s-1.37 3.265-3.0453 3.265c-1.6832 0-3.0532-1.467-3.0532-3.265s1.37-3.265 3.0532-3.265z"/>
  <path id="path3037" style="fill:#217867" inkscape:connector-curvature="0" d="m861.93 494.59 11.837 0.408 0.6107 182.23-12.651 2.857 0.2036-185.49z"/>
  <path id="path3039" style="fill:#217867" inkscape:connector-curvature="0" d="m897.65 502.36 19.18 0.204 0.8142 23.669-19.587 0.205-0.4071-24.078z"/>
  <path id="path3041" style="fill:#217867" inkscape:connector-curvature="0" d="m897.85 529.29 0.4071 24.894 19.791-0.204-0.407-24.486-19.791-0.204z"/>
  <path id="path3043" style="fill:#217867" inkscape:connector-curvature="0" d="m898.26 557.45-0.6107 25.71 19.587-1.02v-25.302l-18.977 0.612z"/>
  <path id="path3045" style="fill:#217867" inkscape:connector-curvature="0" d="m898.05 586.63 0.2036 23.262 19.384-1.632-0.2036-23.058-19.384 1.428z"/>
  <path id="path3047" style="fill:#217867" inkscape:connector-curvature="0" d="m898.46 612.95-0.2035 25.914 18.977-2.449 0.4071-24.894-19.18 1.429z"/>
  <path id="path3049" style="fill:#217867" inkscape:connector-curvature="0" d="m898.05 642.54v30.607l18.773-3.673 0.4071-29.383-19.18 2.449z"/>
  <path id="path3051" style="fill:#217867" inkscape:connector-curvature="0" d="m947.02 503.38 0.4149 22.445 17.544 0.817v2.448h-17.137l-0.822 24.486 18.773-0.816 0.4071 2.449-18.765 0.816-0.4149 24.486 19.18-0.408v2.04l-18.765 1.224-0.4149 22.854 81.003-8.977 0.4071 3.265-81.41 8.569 0.4149 24.078 81.402-11.426-0.8142 3.265-80.588 11.017v28.159l87.798-14.759-0.274-57.678-65.494 5.917v-88.558l65.275 0.897 0.016-4.162-87.735-2.448z"/>
  <path id="path3053" style="fill:#217867" inkscape:connector-curvature="0" d="m973.15 513.99v23.67l25.709-0.408-0.4071-22.853s-25.709 0-25.302-0.409z"/>
  <path id="path3055" style="fill:#217867" inkscape:connector-curvature="0" d="m1002.1 514.81v22.445l23.462 0.408-0.2036-23.057-23.259 0.204z"/>
  <path id="path3057" style="fill:#217867" inkscape:connector-curvature="0" d="m973.55 541.33-0.4071 24.078 25.709-1.632v-22.854s-25.709 0.408-25.302 0.408z"/>
  <path id="path3059" style="fill:#217867" inkscape:connector-curvature="0" d="m1002.1 540.92v22.446l23.869-0.613v-22.037l-23.869 0.204z"/>
  <path id="path3061" style="fill:#217867" inkscape:connector-curvature="0" d="m999.26 567.04-25.709 1.225v24.486l25.709-1.633v-24.078z"/>
  <path id="path3063" style="fill:#217867" inkscape:connector-curvature="0" d="m1002.5 566.63 0.4071 24.078 23.259-2.04v-23.67l-23.666 1.632z"/>
  <path id="path3065" style="fill:#217867" inkscape:connector-curvature="0" d="m807.05 764.56 0.4071 8.163 32.45-8.775 0.4071-8.162-33.264 8.774z"/>
  <path id="path3067" style="fill:#217867" inkscape:connector-curvature="0" d="m844.4 754.55-0.2036 8.366 32.238-9.183v-7.754l-32.035 8.571z"/>
  <path id="path3069" style="fill:#217867" inkscape:connector-curvature="0" d="m917.38 734.73-0.2505 5.773-3.1863 0.815-0.1409-5.352-32.653 8.775-0.2035 7.754 33.436-9.085v14.619c4.9007 3.129 11.023 5.849 14.694 13.467-0.141 7.346-0.274 14.692-0.4071 22.038-6.1925-1.496-10.686-4.353-11.43-10.202-0.274-3.674-0.548-7.347-0.8142-11.019-0.6811-0.817-1.3622-1.633-2.0433-2.449v24.894c4.6267 1.496 9.2535 2.992 13.872 4.489l17.959-8.162-0.7828-56.236 3.4759-0.935-0.2036-7.551-31.322 8.367z"/>
  <path id="path3071" style="fill:#217867" inkscape:connector-curvature="0" d="m953.4 725.13-0.2035 7.346 31.424-8.57-0.6107-7.142-30.61 8.366z"/>
  <path id="path3073" style="fill:#217867" inkscape:connector-curvature="0" d="m1057.7 697.55 0.2036 5.918 27.752-7.143-0.2036-5.917-27.752 7.142z"/>
  <path id="path3075" style="fill:#217867" inkscape:connector-curvature="0" d="m1090.2 689.17 0.2035 5.306 27.752-6.938-0.2035-5.51-27.752 7.142z"/>
  <path id="path3077" style="fill:#217867" inkscape:connector-curvature="0" d="m1122.6 680.79-0.6107 5.306 7.0615-1.817-0.1096 10.537 5.0181 1.003 4.0161 4.014 2.3408 5.016 0.3366 14.716-9.0343-1.002v-15.386l-2.0041-0.669-0.3366 17.393 11.038 2.006 13.042-5.352 0.4619-41.024-3.1706 0.865 0.1096-2.748-28.16 7.142z"/>
  <path id="path3079" style="fill:#217867" inkscape:connector-curvature="0" d="m1155.1 672.41 0.2035 4.49 27.752-6.939-0.2036-5.509-27.752 7.958z"/>
  <path id="path3081" style="fill:#217867" inkscape:connector-curvature="0" d="m1186.3 663.22 0.2036 4.489 27.752-6.938-0.2036-5.509-27.752 7.958z"/>
  <path id="path3083" style="fill:#217867" inkscape:connector-curvature="0" d="m637.68 734.36 100.8 17.14 2.8574 4.081-108.55-19.181 4.8929-2.04z"/>
  <path id="path3085" style="fill:#217867" inkscape:connector-curvature="0" d="m669.11 727.43v3.264l82.028 13.468-0.4071-3.673s-83.25-12.651-81.621-13.059z"/>
  <path id="path3087" style="fill:#217867" inkscape:connector-curvature="0" d="m793.99 747.42 46.118 7.754-3.6794 2.449-43.66-6.529 1.2213-3.674z"/>
  <path id="path3089" style="fill:#217867" inkscape:connector-curvature="0" d="m792.77 733.95 71.006 9.794-1.6284 2.041-66.935-8.978-2.4426-2.857z"/>
  <path id="path3091" style="fill:#217867" inkscape:connector-curvature="0" d="m792.77 724.98 104.06 12.243 0.822-3.265-104.88-11.427v2.449z"/>
  <path id="path3093" style="fill:#217867" inkscape:connector-curvature="0" d="m805 711.92 2.8574 2.448 125.27 13.262 3.6716-2.041-131.8-13.669z"/>
  <path id="path3095" style="fill:#217867" inkscape:connector-curvature="0" d="m696.04 719.26 38.767 5.713 2.4504 2.857-47.747-6.938 6.5291-1.632z"/>
  <path id="path3097" style="fill:#217867" inkscape:connector-curvature="0" d="m811.95 698.45 83.25 8.162 0.4071 2.856-89.779-8.978s6.9362-1.633 6.122-2.04z"/>
  <path id="path3099" style="fill:#217867" inkscape:connector-curvature="0" d="m863.37 685.39 2.0433 2.856 42.439 3.265 3.6717-2.857-48.154-3.264z"/>
  <path id="path3101" style="fill:#217867" inkscape:connector-curvature="0" d="m953.97 691.92 0.4071 2.448 77.942 5.306 4.9007-1.632s-82.843-5.306-83.25-6.122z"/>
  <path id="path3103" style="fill:#217867" inkscape:connector-curvature="0" d="m951.52 671.11 2.0355 2.449 70.606 4.489-1.2291-2.448s-71.82-4.081-71.413-4.49z"/>
  <path id="path3105" style="fill:#217867" inkscape:connector-curvature="0" d="m1064.6 668.25 1.6283 2.856 66.52 3.266 4.0787-1.632s-72.517-4.99-72.227-4.49z"/>
  <path id="path3107" style="fill:#217867" inkscape:connector-curvature="0" d="m1065.4 645.8 2.0354 3.266 58.362 3.264-0.4071-2.856s-60.476-4.447-59.991-3.674z"/>
  <path id="path3109" style="fill:#217867" inkscape:connector-curvature="0" d="m1158 651.52v2.448l53.055 4.082 2.4503-2.449s-55.505-3.265-55.505-4.081z"/>
  <path id="path3111" style="fill:#217867" inkscape:connector-curvature="0" d="m790.32 824.55 0.4071-44.483 122.02-34.28-0.822 35.912-11.829 6.938-6.122 0.409-2.4503 4.081-12.244 2.857-17.959 5.304-9.7936 0.409-2.4503 4.897-13.465 5.713h-6.122l-8.1574 5.306-11.837 6.937h-19.18z"/>
  <path id="path3113" style="fill:#217867" inkscape:connector-curvature="0" d="m988.65 722.53v-6.53l31.424-8.16 0.2036 6.325-31.628 8.365z"/>
  <path id="path3115" style="fill:#217867" inkscape:connector-curvature="0" d="m1025.2 712.32-0.2036-6.121 28.567-7.346 0.4071 5.714-28.77 7.753z"/>
  <path id="path3117" style="fill:#217867" inkscape:connector-curvature="0" d="m1029.1 514.81-0.4071 73.73 5.9889-0.544-0.1409-73.73-5.4409 0.544z"/>
  <path id="path3119" style="fill:#217867" inkscape:connector-curvature="0" d="m1060 701.41v47.925l-13.254 4.894-16.111-2.447 0.2036-19.374 2.2468 0.408-0.2036 9.585 1.8319 5.507 4.6894 2.039 7.1397 1.224v-18.355l-7.7503-2.855-4.4858-2.855-3.2646-4.283-0.4071-13.664 29.365-7.749z"/>
  <path id="path3121" style="fill:#217867" inkscape:connector-curvature="0" d="m947.84 736.81 81.613-22.446-0.4071 30.608-5.707 0.816-6.5369 3.265-8.5646-1.225-5.3078 6.938-8.1652 2.041-7.3433 1.632-13.058 6.529-4.0787-1.223-3.6717 2.04-0.4149 2.449-16.73 8.57-1.6284-39.994z"/>
  <path id="path3123" style="fill:#217867" inkscape:connector-curvature="0" d="m1061.7 704.98 65.698-18.365 0.4149 22.038-4.9007 4.489-8.5724 3.673-6.5291 0.408-4.4858 1.632-1.2291 2.449-9.3865 4.081-4.8929 0.408-6.9361 3.265-8.9795 5.306-9.3865 1.223-0.8142-30.607z"/>
  <path id="path3125" style="fill:#217867" inkscape:connector-curvature="0" d="m1163.7 677.23 12.651 0.408 8.9795 2.449 14.686 1.225 0.4149 4.081-10.208 6.937-10.608 1.224-5.7149 4.898-6.9362 1.632-11.837 1.632 0.8142-22.853 7.7582-1.633z"/>
  <path id="path3127" style="fill:#217867" inkscape:connector-curvature="0" d="m611.25 345.73 18.014 1.659-1.7614-2.546 6.8735 0.816 6.9831 5.5 16.182 0.525 6.2629 4.78 20.652 0.311 4.6502 4.586 10.201 0.409-3.6716-4.081 24.621 1.03 3.1315 3.051 17.137 1.223-2.0432-2.856 19.18 0.816 4.4936 4.081 13.872 0.408-1.2212-2.04 18.773 0.816 2.0355 2.041 17.192-0.09 1.7693 1.528 28.136 1.107-2.2155-2.121-24.59-1.067-5.8637-5.479-2.7478 0.154 4.1178 4.315-14.123-0.291-6.0828-6.611-3.0924-0.505 4.7598 5.132-13.583-0.97-6.7483-6.028-2.74-0.351 6.7404 6.125-4.7206 0.02 1.0334 2.04-9.7702-0.214-9.2456-8.938-3.1158-0.816 5.1278 5.791-18.476-0.74-8.2827-8.316h-2.8496l9.8093 10.591-11.038-0.796-10.201-11.019-3.6716-0.408 6.5291 8.162h-8.1653l-3.6716-5.713-3.2645-0.409 3.6716 5.714h-8.1574l-5.4644-7.253-2.2938 0.316 4.7442 6.468-2.9749 0.02 3.1471 4.218-5.1278-0.138-9.7545-11.192-2.0433 0.154 4.2588 6.182-17.552-0.409-16.73-12.651-2.8574-0.408 9.4257 8.162-13.113-0.602-11.007-10.416-3.014-0.255 4.6111 5.152-8.588-1.031 1.7458 2.857-14.906-1.719 0.6576 2.218z"/>
  <path id="path3129" style="fill:#217867" inkscape:connector-curvature="0" d="m475.27 318.1-15.508-1.428 1.7975 3.306 12.16 1.305 17.055 12.731-28.679-1.959 0.41022 3.469 56.595 3.022-6.7412-9.545 9.428 9.584 31.098 1.714 2.0041-0.725 4.0318 4.237 16.785 0.857 7.4607 7.142 35.675 3.02-14.084-19.752-9.8328-0.857 2.0824 2.203 5.8715 0.857 11.265 14.938-12.001-1.101-8.6898-10.163-3.1001 0.326 7.265 9.061-12.573-0.978-14.898-16.367 10.389 1.099-3.1001-2.652-10.263-1.017-11.383-10.853-4.4075-0.327 22.852 22.729-14.17-1.346-18.481-17.02-3.6732 0.408 14.083 13.753-28.165-2.044-16.531-13.542-5.4706-1.063 10.576 13.505-17.136-1.019-19.997-15.508z"/>
  <path id="path3131" style="fill:#217867" inkscape:connector-curvature="0" d="m500.77 343.4 16.121 13.06-33.249-1.835 3.2653 3.266 32.026 2.245 9.3842 7.752 29.793 1.632-14.302-13.927 11.954 1.022 15.407 13.164 20.01 0.187 2.1059-1.218 2.7713 2.813 26.664 1.113-11.305-13.619-4.6894-0.665 9.8641 10.801-19.572-0.483-13.598-12.466-4.3371-0.256 11.829 11.625-19.54-0.893-14.694-13.322-19.901-1.413 13.578 13.456-20.813-0.816-23.712-20.894-5.0604-0.329z"/>
  <path id="path3133" style="fill:#217867" inkscape:connector-curvature="0" d="m531.58 373.19 18.451 15.575 12.27 0.813 6.2394 4.494-35.487-0.203 1.4272 2.447 40.699 0.54-8.8855-7.204 10.357 0.04-1.8084-3.446 8.9716 6.53 26.844 0.07-9.7466-9.868 10.655 0.233 13.645 16.433 3.1158 0.05-16.244-19.041-16.526 0.336 9.1595 9.635-19.266-0.297-18.178-13.653-5.7149-0.408 11.798 10.867-21.951-1.042-15.334-12.904h-4.4889z"/>
  <path id="path3135" style="fill:#217867" inkscape:connector-curvature="0" d="m426.8 305.57-1.0193 0.407 28.347 2.04-2.2437-3.263 26.92 2.855 7.9539 6.729 33.648 5.301-6.2191-6.015 23.549 4.789-3.364-2.957-18.657-3.771-9.2754-8.155-5.5043-1.121 9.9893 9.175h-2.0394l4.6894 4.487-24.675-4.179-16.924-15.705-9.9932-1.427 2.1411 2.854 5.2021 0.714 7.0332 5.713-24.576-2.345-8.0588-8.262-5.3008-0.713 11.116 12.543-6.7303-0.306-7.2407-7.139-3.8752-0.203 6.5267 7.138-11.625-1.02 0.20355 1.836z"/>
  <path id="path3137" style="fill:#217867" inkscape:connector-curvature="0" d="m562.09 414.88 29.224 2.243 9.2143 6.398 22.022 0.884-3.5933-3.003 7.9226 0.05-2.6148-2.373-7.8443-0.237-14.319-12.678-3.5542-0.263 17.051 15.536-13.763-0.414-15.352-11.651-5.3-0.816 7.1475 5.303-10.819-0.816-14.593-10.858-5.3939-0.97 14.992 11.952-12.134-1.143 1.7066 2.855z"/>
  <path id="path3139" style="fill:#217867" inkscape:connector-curvature="0" d="m617.19 370.13 4.0396 5.083 32.058 2.56-6.122-6.122 14.694 0.409 8.1652 6.529 26.93 2.449-2.4504-3.265 13.41 0.02 2.098 2.021 18.93 1.127-3.0141-3.168 15.579 1.75 3.8517 3.147 15.195 0.817-2.7949-3.266 10.616 1.225 3.6716 3.265 15.101 1.224-2.4504-2.448h10.608l4.4937 4.081 17.544 0.408-3.2645-2.857 9.7936 0.408 4.0865 2.857 13.465 0.407-2.4504-2.448 6.897 0.117 3.3037 2.74 21.223 1.031-3.0845-2.469c-6.4977 0.158-10.083-0.343-15.297-0.546l-14.264-13.116-3.2645-0.816 11.821 11.871-10.655-0.464c-0.2662 0.402 0.4619 1.146 0.8455 1.632l-7.3198 0.02-9.3239-8.086-3.6716-0.408 6.5056 5.443-9.8876-0.546-11.038-9.095h-3.6716l13.536 11.875-9.3865 0.408-10.107-8.752h-2.8574l4.4936 4.166-10.06 0.311-7.7033-8.513-3.5542-0.271 9.637 10.708-9.2847-0.72-7.2259-8.356-2.92-0.408 4.5014 5.403-10.694-1.225-8.0948-9.075-2.7243-0.117 10.107 11.835-9.0342-0.352-10.999-10.55-3.6717-0.408 8.0244 8.101-15.532-1.939-6.3412-6.978-3.288-0.408 8.1574 9.794-11.422-0.234-10.866-9.601-3.4055-0.08 8.3375 7.483-8.8776-0.03-3.4368-0.23-7.171-7.228-3.4994 0.1 9.4805 9.988-20.441-1.458-13.176-12.591-3.1314 0.1 4.6659 4.917-15.829-0.622-6.9596-6.57-2.6696 0.04 12.471 12.728-23.869-1.724-7.0144-7.751 0.93161 4.708z"/>
  <path id="path3141" style="fill:#217867" inkscape:connector-curvature="0" d="m621.51 394.88h7.7268l12.283 12.575 4.1022 0.214-8.0478-7.151 22.985-0.215 2.8496 3.673 17.959 0.408-4.0787-4.081 14.279 0.817 3.2645 4.897 19.18-1.224-2.0355-2.449h6.122l3.6716 2.04 18.366-0.408 4.0004 3.342 24.394 1.071-2.8574-3.265 11.187 0.893 6.122 4.489 24.081 0.408-2.8574-2.857h17.959l6.5291 6.122 22.296 0.408-2.8574-2.47 9.5353 0.02 4.4858 4.081 18.366 0.407-3.6716-2.856 8.7211-0.601 5.6444 4.252 7.6721 0.43 1.4796 0.998 20.19 0.43-1.5031-2.148-17.614-0.86-4.7285-4.725-2.787 0.644 3.108 3.212h-3.8595l-9.7936-8.978-3.6717 0.408 4.3606 4.274-8.314 0.02-12.369-12.458-4.9008-0.816 16.049 16.539-9.9423-0.158-15.172-14.104-3.2646 0.408 9.0656 9.15-8.2279 0.193-13.121-13.252h-4.0787l15.313 15.314-13.254 0.43-17.419-15.315-4.0788 0.816 8.5489 7.325-10.208 0.408-15.508-11.835h-3.6717l14.084 11.622-6.0515-0.131 3.1628 2.578-16.714 0.08-17.192-15.176-3.8125-0.194 11.868 11.135-11.821-0.642-10.514-10.085-4.4858-0.408 13.825 13.273-15.939-0.448-17.215-14.458-3.2645 0.408 12.369 10.765-15.524 0.408-16.839-13.214-3.2646 0.409 12.158 10.514-6.9362 0.541 2.9357 2.565-13.465 0.663-15.509-16.324h-4.0787l10.201 11.019-8.5724-0.816-14.686-16.324-2.8418-0.215 14.475 16.575-3.5542-0.387 3.8125 4.412-10.263-0.388-13.113-16.033-3.2097 0.117 9.5431 12.279-10.984 0.482-9.0812-9.718-3.5464 0.312 8.6115 9.276-8.0087 0.02-6.2159-5.857-8.9716 0.124s1.0334 2.35 0.62629 2.35z"/>
  <path id="path3143" style="fill:#217867" inkscape:connector-curvature="0" d="m617.97 430.94 14.42 0.136 3.6716 3.265 13.129 0.815-10.678-8.161h4.0787l14.553 10.201 21.662-0.175-10.287-6.837 5.9028 0.483 6.396 4.178 22.617 0.02-5.5035-3.673 2.7478-0.331 10.631 6.121 18.202-0.194 4.1804 3.108 21.529-0.06-12.087-10.084 3.9299 0.1 10.201 7.345 20.002 0.408 7.3432 4.081 24.308 0.817-4.705-4.567 2.4347-0.739 6.4743 5.714 20.456 0.816-2.0355-2.041 16.323 0.408 9.7936 6.53h-0.548l2.1842 1.632 17.544 1.633-4.4858-4.082h4.0787l5.3078 2.449 22.038 2.041-4.0866-4.49h3.2646l15.101 7.755 18.366 0.816-7.7581-6.122h3.6794l18.773 9.795 9.1595-0.501-12.424-8.885 2.8496-0.409 17.959 10.203 16.393 0.302-9.8641-5.607 4.0787-0.409 20.777 10.375 26.007 1.094-13.708-5.96 4.5485-0.303 12.111 4.847 11.813 0.606 2.1215 1.212-11.813-0.303-1.0882 0.682 1.4718 1.626-33.467-0.816-9.7936-4.081-20.401 0.408-4.9007-2.04-12.244 0.815-9.7936-3.672-24.48-0.817-8.1652-3.673-24.488-0.816 0.822 2.449-27.345-2.856-6.9361-6.53 0.1174-0.01-3.382-2.029-8.5723-0.408 1.6283 2.041-26.523-1.225-2.4504-0.816-26.813-0.679-8.2279-4.489-15.563 0.679 2.0432 2.449-30.203-0.409-3.6716-2.448h-17.544l-4.4545-2.74-22.484 0.291 2.7948 2.255-30.954 0.602-4.4858-2.449-16.738-0.816-4.4467-3.826-10.725-0.269-1.691-1.754z"/>
  <path id="path3145" style="fill:#217867" inkscape:connector-curvature="0" d="m933.45 436.66 4.1804 2.719-7.5311 0.353-10.396-9.176-1.8397 0.611 7.5546 7.652-11.633 0.71-14.475-10.809-2.0433 0.408 9.4492 7.867-14.749 0.29-18.562-14.071-2.6461 0.611 15.094 12.236-14.076-0.203-23.697-14.413-3.0767 0.137 13.872 9.789-26.664 0.816-4.2431-2.546-4.4154-2.81-26.93-0.816-4.3762-3.887h-3.2645l6.6935 5.673-21.826-0.352-12.33-12.045-2.6774 0.08 9.0342 8.861-20.19-0.117-11.876-10.861h-3.2646l4.9008 4.897h-13.88l-6.9362-7.346-3.2645 0.408 6.9362 8.162-18.773-0.408-9.3787-6.937h-3.6403l10.295 8.606-24.793-0.873-7.7738-7.346-3.6794 0.409 8.7133 7.579-29.843-0.157-10.905-8.218-4.4858-0.409 9.6527 7.54-12.917-0.194c-1.2291-0.816 1.7614 2.295 1.8241 2.178l13.677 0.679 2.0433 1.224s26.923 0.84 34.845 0.649c0.39143-0.354 0.68892-0.919 0.65761-1.465l30.203 1.632-1.6361-2.04 24.488 1.224-2.0433-2.448h12.244l7.7582 5.713 22.445 0.408 2.8575 2.449c0.047 0.134 21.012 1.281 27.619 0.869 0.8063-0.348 0.4071-0.949 0.5402-1.277l23.259 0.684 7.0301 4.058 30.383-0.816 10.201 5.915 16.487-0.836 2.7244 1.584 17.865-0.734 4.2822 2.744 14.726-1.133 2.8574 1.644 10.6-0.603 2.2468 1.461h16.871l-1.8945-2.377-14.029 0.238-7.3668-4.991-3.0844 0.95z"/>
  <path id="path3147" style="fill:#217867" inkscape:connector-curvature="0" d="m596.77 435.5 2.4425 1.766 12.628 0.407-4.204-3.938 11.273 0.407 2.3016 2.173h3.3976l-8.4158-7.877h-3.1236l3.9378 3.803-11.414-0.272-5.4252-4.617-4.0787-0.137 10.459 8.421-9.778-0.136z"/>
  <metadata>
    <rdf:RDF>
      <cc:Work>
        <dc:format>image/svg+xml</dc:format>
        <dc:type rdf:resource="http://purl.org/dc/dcmitype/StillImage"/>
        <cc:license rdf:resource="http://creativecommons.org/licenses/publicdomain/"/>
        <dc:publisher>
          <cc:Agent rdf:about="http://openclipart.org/">
            <dc:title>Openclipart</dc:title>
          </cc:Agent>
        </dc:publisher>
        <dc:title>Cabin Hebrews 3 4 for plotter</dc:title>
        <dc:date>2011-02-19T07:39:58</dc:date>
        <dc:description>Drawn for signs with Hebrews 3:4, "For every house is built by someone, but He who built all things is God"\n.\n.\nNOTES:!!! This is in 4 sections, inspect it closely and see if you want to "union" the pieces together. Depending on peripheral/driver/software combinations, some old pen plotters can balk at too big of a file, so this is in 4 parts.\n Originally drawn with paper and ink, scanned, raster edited, imported into Inkscape, traced, and node edited.</dc:description>
        <dc:source>https://openclipart.org/detail/120919/cabin_hebrews_3_4_for_plotter-by-raker-tooth</dc:source>
        <dc:creator>
          <cc:Agent>
            <dc:title>Raker Tooth</dc:title>
          </cc:Agent>
        </dc:creator>
        <dc:subject>
          <rdf:Bag>
            <rdf:li>Log cabin vector for plotters and vinyl cutters</rdf:li>
            <rdf:li>cabin for Hebrews 3:4 artwork</rdf:li>
            <rdf:li>cabin in pines</rdf:li>
            <rdf:li>posterized cabin</rdf:li>
          </rdf:Bag>
        </dc:subject>
      </cc:Work>
      <cc:License rdf:about="http://creativecommons.org/licenses/publicdomain/">
        <cc:permits rdf:resource="http://creativecommons.org/ns#Reproduction"/>
        <cc:permits rdf:resource="http://creativecommons.org/ns#Distribution"/>
        <cc:permits rdf:resource="http://creativecommons.org/ns#DerivativeWorks"/>
      </cc:License>
    </rdf:RDF>
  </metadata>
</svg>