<?xml version="1.0" encoding="UTF-8" standalone="no"?>
<!DOCTYPE svg PUBLIC "-//W3C//DTD SVG 1.1//EN"
 "http://www.w3.org/Graphics/SVG/1.1/DTD/svg11.dtd">
<!-- Generated by graphviz version 14.0.4 (0)
 -->
<!-- Title: G Pages: 1 -->
<svg width="744pt" height="577pt"
 viewBox="0.00 0.00 744.00 577.00" xmlns="http://www.w3.org/2000/svg" xmlns:xlink="http://www.w3.org/1999/xlink">
<g id="graph0" class="graph" transform="scale(1 1) rotate(0) translate(4 573)">
<title>G</title>
<polygon fill="#1f1f1f" stroke="none" points="-4,4 -4,-573 740,-573 740,4 -4,4"/>
<g id="clust1" class="cluster">
<title>cluster_external</title>
<path fill="#601000" stroke="white" d="M20,-321C20,-321 356,-321 356,-321 362,-321 368,-327 368,-333 368,-333 368,-487 368,-487 368,-493 362,-499 356,-499 356,-499 20,-499 20,-499 14,-499 8,-493 8,-487 8,-487 8,-333 8,-333 8,-327 14,-321 20,-321"/>
<text xml:space="preserve" text-anchor="middle" x="188" y="-481.7" font-family="Helvetica,Arial,sans-serif" font-size="14.00" fill="white">External Compose</text>
</g>
<g id="clust2" class="cluster">
<title>cluster_tailnet</title>
<path fill="#013312" stroke="white" d="M388,-8C388,-8 716,-8 716,-8 722,-8 728,-14 728,-20 728,-20 728,-385 728,-385 728,-391 722,-397 716,-397 716,-397 388,-397 388,-397 382,-397 376,-391 376,-385 376,-385 376,-20 376,-20 376,-14 382,-8 388,-8"/>
<text xml:space="preserve" text-anchor="middle" x="552" y="-379.7" font-family="Helvetica,Arial,sans-serif" font-size="14.00" fill="white">Tailnet</text>
</g>
<g id="clust4" class="cluster">
<title>cluster_internal</title>
<path fill="#32467a" stroke="white" d="M396,-16C396,-16 708,-16 708,-16 714,-16 720,-22 720,-28 720,-28 720,-283 720,-283 720,-289 714,-295 708,-295 708,-295 396,-295 396,-295 390,-295 384,-289 384,-283 384,-283 384,-28 384,-28 384,-22 390,-16 396,-16"/>
<text xml:space="preserve" text-anchor="middle" x="552" y="-277.7" font-family="Helvetica,Arial,sans-serif" font-size="14.00" fill="white">Internal Compose</text>
</g>
<!-- internet -->
<g id="node1" class="node">
<title>internet</title>
<path fill="none" stroke="none" d="M201.88,-569C201.88,-569 164.12,-569 164.12,-569 158.12,-569 152.12,-563 152.12,-557 152.12,-557 152.12,-545 152.12,-545 152.12,-539 158.12,-533 164.12,-533 164.12,-533 201.88,-533 201.88,-533 207.88,-533 213.88,-539 213.88,-545 213.88,-545 213.88,-557 213.88,-557 213.88,-563 207.88,-569 201.88,-569"/>
<text xml:space="preserve" text-anchor="middle" x="183" y="-545.2" font-family="Helvetica,Arial,sans-serif" font-size="14.00" fill="white">Internet</text>
</g>
<!-- public_rp -->
<g id="node2" class="node">
<title>public_rp</title>
<path fill="#2d2d2d" stroke="white" d="M215,-468C215,-468 151,-468 151,-468 145,-468 139,-462 139,-456 139,-456 139,-444 139,-444 139,-438 145,-432 151,-432 151,-432 215,-432 215,-432 221,-432 227,-438 227,-444 227,-444 227,-456 227,-456 227,-462 221,-468 215,-468"/>
<text xml:space="preserve" text-anchor="middle" x="183" y="-444.2" font-family="Helvetica,Arial,sans-serif" font-size="14.00" fill="white">External RP</text>
</g>
<!-- internet&#45;&gt;public_rp -->
<g id="edge3" class="edge">
<title>internet&#45;&gt;public_rp</title>
<path fill="none" stroke="white" d="M183,-533.21C183,-526.67 183,-518.76 183,-510.46"/>
<polygon fill="white" stroke="white" points="186.5,-510.51 183,-500.51 179.5,-510.51 186.5,-510.51"/>
</g>
<!-- website -->
<g id="node3" class="node">
<title>website</title>
<path fill="#2d2d2d" stroke="white" d="M141.75,-367C141.75,-367 28.25,-367 28.25,-367 22.25,-367 16.25,-361 16.25,-355 16.25,-355 16.25,-341 16.25,-341 16.25,-335 22.25,-329 28.25,-329 28.25,-329 141.75,-329 141.75,-329 147.75,-329 153.75,-335 153.75,-341 153.75,-341 153.75,-355 153.75,-355 153.75,-361 147.75,-367 141.75,-367"/>
<text xml:space="preserve" text-anchor="middle" x="85" y="-349.7" font-family="Helvetica,Arial,sans-serif" font-size="14.00" fill="white">Website</text>
<text xml:space="preserve" text-anchor="middle" x="85" y="-334.7" font-family="Helvetica,Arial,sans-serif" font-size="14.00" fill="white">(public.duckdns.org)</text>
</g>
<!-- public_rp&#45;&gt;website -->
<g id="edge1" class="edge">
<title>public_rp&#45;&gt;website</title>
<path fill="none" stroke="white" d="M165.93,-431.58C150.62,-415.96 127.93,-392.81 110.48,-375"/>
<polygon fill="white" stroke="white" points="113.43,-373.01 103.93,-368.31 108.43,-377.91 113.43,-373.01"/>
</g>
<!-- headscale -->
<g id="node4" class="node">
<title>headscale</title>
<path fill="#2d2d2d" stroke="white" d="M347.75,-367C347.75,-367 216.25,-367 216.25,-367 210.25,-367 204.25,-361 204.25,-355 204.25,-355 204.25,-341 204.25,-341 204.25,-335 210.25,-329 216.25,-329 216.25,-329 347.75,-329 347.75,-329 353.75,-329 359.75,-335 359.75,-341 359.75,-341 359.75,-355 359.75,-355 359.75,-361 353.75,-367 347.75,-367"/>
<text xml:space="preserve" text-anchor="middle" x="282" y="-349.7" font-family="Helvetica,Arial,sans-serif" font-size="14.00" fill="white">Headscale</text>
<text xml:space="preserve" text-anchor="middle" x="282" y="-334.7" font-family="Helvetica,Arial,sans-serif" font-size="14.00" fill="white">(hs.public.duckdns.org)</text>
</g>
<!-- public_rp&#45;&gt;headscale -->
<g id="edge2" class="edge">
<title>public_rp&#45;&gt;headscale</title>
<path fill="none" stroke="white" d="M200.24,-431.58C215.71,-415.96 238.63,-392.81 256.26,-375"/>
<polygon fill="white" stroke="white" points="258.34,-377.88 262.88,-368.31 253.36,-372.95 258.34,-377.88"/>
</g>
<!-- docker_ts_node -->
<g id="node8" class="node">
<title>docker_ts_node</title>
<path fill="#2d2d2d" stroke="white" d="M610.88,-264C610.88,-264 483.12,-264 483.12,-264 477.12,-264 471.12,-258 471.12,-252 471.12,-252 471.12,-238 471.12,-238 471.12,-232 477.12,-226 483.12,-226 483.12,-226 610.88,-226 610.88,-226 616.88,-226 622.88,-232 622.88,-238 622.88,-238 622.88,-252 622.88,-252 622.88,-258 616.88,-264 610.88,-264"/>
<text xml:space="preserve" text-anchor="middle" x="547" y="-246.7" font-family="Helvetica,Arial,sans-serif" font-size="14.00" fill="white">Docker Tailscale Node</text>
<text xml:space="preserve" text-anchor="middle" x="547" y="-231.7" font-family="Helvetica,Arial,sans-serif" font-size="14.00" fill="white">(*.private.duckdns.org)</text>
</g>
<!-- headscale&#45;&gt;docker_ts_node -->
<g id="edge13" class="edge">
<title>headscale&#45;&gt;docker_ts_node</title>
<path fill="none" stroke="white" d="M330.3,-328.59C352.42,-320.16 379.88,-309.69 407.75,-299.07"/>
<polygon fill="white" stroke="white" points="408.93,-302.37 417.02,-295.54 406.43,-295.83 408.93,-302.37"/>
</g>
<!-- phone -->
<g id="node5" class="node">
<title>phone</title>
<path fill="#2d2d2d" stroke="white" d="M456.5,-366C456.5,-366 425.5,-366 425.5,-366 419.5,-366 413.5,-360 413.5,-354 413.5,-354 413.5,-342 413.5,-342 413.5,-336 419.5,-330 425.5,-330 425.5,-330 456.5,-330 456.5,-330 462.5,-330 468.5,-336 468.5,-342 468.5,-342 468.5,-354 468.5,-354 468.5,-360 462.5,-366 456.5,-366"/>
<text xml:space="preserve" text-anchor="middle" x="441" y="-342.2" font-family="Helvetica,Arial,sans-serif" font-size="14.00" fill="white">Phone</text>
</g>
<!-- laptop -->
<g id="node6" class="node">
<title>laptop</title>
<path fill="#2d2d2d" stroke="white" d="M563.62,-366C563.62,-366 530.38,-366 530.38,-366 524.38,-366 518.38,-360 518.38,-354 518.38,-354 518.38,-342 518.38,-342 518.38,-336 524.38,-330 530.38,-330 530.38,-330 563.62,-330 563.62,-330 569.62,-330 575.62,-336 575.62,-342 575.62,-342 575.62,-354 575.62,-354 575.62,-360 569.62,-366 563.62,-366"/>
<text xml:space="preserve" text-anchor="middle" x="547" y="-342.2" font-family="Helvetica,Arial,sans-serif" font-size="14.00" fill="white">Laptop</text>
</g>
<!-- phone&#45;&gt;laptop -->
<g id="edge4" class="edge">
<title>phone&#45;&gt;laptop</title>
<path fill="none" stroke="white" d="M468.84,-348C473.22,-348 476.33,-348 476.33,-348 476.33,-348 511.67,-348 511.67,-348 511.67,-348 514.31,-348 518.15,-348"/>
</g>
<!-- phone&#45;&gt;docker_ts_node -->
<g id="edge6" class="edge">
<title>phone&#45;&gt;docker_ts_node</title>
<path fill="none" stroke="white" d="M458.98,-329.87C478.12,-311.63 508.28,-282.89 527.85,-264.24"/>
</g>
<!-- vps -->
<g id="node7" class="node">
<title>vps</title>
<path fill="#2d2d2d" stroke="white" d="M668,-366C668,-366 638,-366 638,-366 632,-366 626,-360 626,-354 626,-354 626,-342 626,-342 626,-336 632,-330 638,-330 638,-330 668,-330 668,-330 674,-330 680,-336 680,-342 680,-342 680,-354 680,-354 680,-360 674,-366 668,-366"/>
<text xml:space="preserve" text-anchor="middle" x="653" y="-342.2" font-family="Helvetica,Arial,sans-serif" font-size="14.00" fill="white">VPS</text>
</g>
<!-- laptop&#45;&gt;vps -->
<g id="edge5" class="edge">
<title>laptop&#45;&gt;vps</title>
<path fill="none" stroke="white" d="M575.85,-348C579.69,-348 582.33,-348 582.33,-348 582.33,-348 617.67,-348 617.67,-348 617.67,-348 620.95,-348 625.51,-348"/>
</g>
<!-- laptop&#45;&gt;docker_ts_node -->
<g id="edge7" class="edge">
<title>laptop&#45;&gt;docker_ts_node</title>
<path fill="none" stroke="white" d="M547,-329.87C547,-311.63 547,-282.89 547,-264.24"/>
</g>
<!-- vps&#45;&gt;docker_ts_node -->
<g id="edge8" class="edge">
<title>vps&#45;&gt;docker_ts_node</title>
<path fill="none" stroke="white" d="M635.02,-329.87C615.88,-311.63 585.72,-282.89 566.15,-264.24"/>
</g>
<!-- private_rp -->
<g id="node9" class="node">
<title>private_rp</title>
<path fill="#2d2d2d" stroke="white" d="M578.75,-161C578.75,-161 519.25,-161 519.25,-161 513.25,-161 507.25,-155 507.25,-149 507.25,-149 507.25,-137 507.25,-137 507.25,-131 513.25,-125 519.25,-125 519.25,-125 578.75,-125 578.75,-125 584.75,-125 590.75,-131 590.75,-137 590.75,-137 590.75,-149 590.75,-149 590.75,-155 584.75,-161 578.75,-161"/>
<text xml:space="preserve" text-anchor="middle" x="549" y="-137.2" font-family="Helvetica,Arial,sans-serif" font-size="14.00" fill="white">Internal RP</text>
</g>
<!-- docker_ts_node&#45;&gt;private_rp -->
<g id="edge9" class="edge">
<title>docker_ts_node&#45;&gt;private_rp</title>
<path fill="none" stroke="white" d="M547.37,-225.66C547.67,-210.72 548.09,-189.39 548.43,-172.27"/>
<polygon fill="white" stroke="white" points="551.92,-172.8 548.63,-162.74 544.93,-172.66 551.92,-172.8"/>
</g>
<!-- service1 -->
<g id="node10" class="node">
<title>service1</title>
<path fill="#2d2d2d" stroke="white" d="M453.5,-60C453.5,-60 404.5,-60 404.5,-60 398.5,-60 392.5,-54 392.5,-48 392.5,-48 392.5,-36 392.5,-36 392.5,-30 398.5,-24 404.5,-24 404.5,-24 453.5,-24 453.5,-24 459.5,-24 465.5,-30 465.5,-36 465.5,-36 465.5,-48 465.5,-48 465.5,-54 459.5,-60 453.5,-60"/>
<text xml:space="preserve" text-anchor="middle" x="429" y="-36.2" font-family="Helvetica,Arial,sans-serif" font-size="14.00" fill="white">Service 1</text>
</g>
<!-- private_rp&#45;&gt;service1 -->
<g id="edge10" class="edge">
<title>private_rp&#45;&gt;service1</title>
<path fill="none" stroke="white" d="M527.82,-124.53C508.63,-108.69 480.15,-85.2 458.69,-67.49"/>
<polygon fill="white" stroke="white" points="461.07,-64.92 451.13,-61.26 456.62,-70.32 461.07,-64.92"/>
</g>
<!-- service2 -->
<g id="node11" class="node">
<title>service2</title>
<path fill="#2d2d2d" stroke="white" d="M576.5,-60C576.5,-60 527.5,-60 527.5,-60 521.5,-60 515.5,-54 515.5,-48 515.5,-48 515.5,-36 515.5,-36 515.5,-30 521.5,-24 527.5,-24 527.5,-24 576.5,-24 576.5,-24 582.5,-24 588.5,-30 588.5,-36 588.5,-36 588.5,-48 588.5,-48 588.5,-54 582.5,-60 576.5,-60"/>
<text xml:space="preserve" text-anchor="middle" x="552" y="-36.2" font-family="Helvetica,Arial,sans-serif" font-size="14.00" fill="white">Service 2</text>
</g>
<!-- private_rp&#45;&gt;service2 -->
<g id="edge11" class="edge">
<title>private_rp&#45;&gt;service2</title>
<path fill="none" stroke="white" d="M549.52,-124.76C549.97,-110.08 550.61,-88.71 551.14,-71.5"/>
<polygon fill="white" stroke="white" points="554.62,-71.99 551.43,-61.89 547.63,-71.78 554.62,-71.99"/>
</g>
<!-- service3 -->
<g id="node12" class="node">
<title>service3</title>
<path fill="#2d2d2d" stroke="white" d="M699.5,-60C699.5,-60 650.5,-60 650.5,-60 644.5,-60 638.5,-54 638.5,-48 638.5,-48 638.5,-36 638.5,-36 638.5,-30 644.5,-24 650.5,-24 650.5,-24 699.5,-24 699.5,-24 705.5,-24 711.5,-30 711.5,-36 711.5,-36 711.5,-48 711.5,-48 711.5,-54 705.5,-60 699.5,-60"/>
<text xml:space="preserve" text-anchor="middle" x="675" y="-36.2" font-family="Helvetica,Arial,sans-serif" font-size="14.00" fill="white">Service 3</text>
</g>
<!-- private_rp&#45;&gt;service3 -->
<g id="edge12" class="edge">
<title>private_rp&#45;&gt;service3</title>
<path fill="none" stroke="white" d="M571.24,-124.53C591.48,-108.62 621.56,-84.99 644.13,-67.25"/>
<polygon fill="white" stroke="white" points="646.1,-70.16 651.8,-61.23 641.77,-64.66 646.1,-70.16"/>
</g>
</g>
</svg>
